{
.appVersion = "3343";
.formatVersion = 3;
axes = (
{
default = 100;
name = Gate;
tag = GATE;
}
);
date = "2023-04-30 17:18:31 +0000";
familyName = Gates;
fontMaster = (
{
axesValues = (
100
);
customParameters = (
{
name = typoAscender;
value = 800;
},
{
name = typoDescender;
value = -200;
},
{
name = typoLineGap;
value = 200;
},
{
name = winAscent;
value = 1000;
},
{
name = winDescent;
value = 200;
},
{
name = hheaAscender;
value = 1000;
},
{
name = hheaDescender;
value = -200;
},
{
name = strikeoutPosition;
value = 250;
},
{
name = strikeoutSize;
value = 50;
}
);
id = m01;
metricValues = (
{
pos = 800;
},
{
pos = 700;
},
{
pos = 500;
},
{
},
{
pos = -200;
},
{
}
);
name = Regular;
},
{
axesValues = (
0
);
customParameters = (
{
name = typoAscender;
value = 800;
},
{
name = typoDescender;
value = -200;
},
{
name = typoLineGap;
value = 200;
},
{
name = winAscent;
value = 1000;
},
{
name = winDescent;
value = 200;
},
{
name = hheaAscender;
value = 1000;
},
{
name = hheaDescender;
value = -200;
},
{
name = strikeoutPosition;
value = 250;
},
{
name = strikeoutSize;
value = 50;
}
);
id = "9DD8F9B5-8EC5-4AE3-8F26-4C0C48EFD34C";
metricValues = (
{
pos = 800;
},
{
pos = 700;
},
{
pos = 500;
},
{
},
{
pos = -200;
},
{
}
);
name = Gated;
}
);
glyphs = (
{
glyphname = A;
lastChange = "2025-10-03 15:18:30 +0000";
layers = (
{
layerId = m01;
shapes = (
{
closed = 1;
nodes = (
(70,3,o),
(139,58,o),
(155,119,q),
(220,322,l),
(291,313,o),
(388,306,o),
(446,306,q),
(505,119,l),
(521,57,o),
(591,2,o),
(631,0,qs),
(649,-1,o),
(667,4,qs),
(702,13,o),
(748,68,o),
(743,109,qs),
(737,161,o),
(664,186,o),
(613,142,o),
(623,113,qs),
(629,98,o),
(653,92,o),
(667,109,o),
(660,125,qs),
(655,140,o),
(683,158,o),
(718,139,o),
(723,109,qs),
(728,81,o),
(696,32,o),
(663,23,qs),
(648,19,o),
(631,19,qs),
(597,21,o),
(542,72,o),
(525,123,qs),
(465,307,l),
(500,311,o),
(541,336,o),
(543,357,qs),
(544,370,o),
(528,381,o),
(510,372,o),
(509,360,qs),
(508,346,o),
(480,332,o),
(458,329,q),
(339,700,l),
(320,700,l),
(206,345,l),
(186,347,o),
(166,350,o),
(146,352,qs),
(99,356,o),
(61,307,o),
(84,250,o),
(115,247,qs),
(131,246,o),
(145,264,o),
(135,285,o),
(119,286,qs),
(103,287,o),
(91,314,o),
(115,335,o),
(144,332,qs),
(155,331,o),
(183,328,o),
(200,325,q),
(135,124,ls),
(119,73,o),
(64,22,o),
(31,20,qs),
(13,19,o),
(-3,23,qs),
(-36,32,o),
(-68,81,o),
(-63,109,qs),
(-58,139,o),
(-23,158,o),
(5,140,o),
(0,125,qs),
(-7,109,o),
(7,92,o),
(32,98,o),
(37,113,qs),
(47,142,o),
(-7,182,o),
(-75,159,o),
(-84,110,qs),
(-91,70,o),
(-42,13,o),
(-7,4,qs),
(11,-1,o),
(31,0,qs)
);
},
{
closed = 1;
nodes = (
(439,327,l),
(382,327,o),
(294,334,o),
(226,342,q),
(330,675,l)
);
}
);
width = 600;
},
{
layerId = "9DD8F9B5-8EC5-4AE3-8F26-4C0C48EFD34C";
shapes = (
{
closed = 1;
nodes = (
(70,3,o),
(139,58,o),
(155,119,q),
(220,322,l),
(291,313,o),
(388,306,o),
(446,306,q),
(505,119,l),
(521,57,o),
(591,2,o),
(631,0,qs),
(652,-2,o),
(667,4,q),
(667,4,o),
(667,4,o),
(667,4,q),
(667,4,o),
(667,4,o),
(667,4,o),
(667,4,q),
(677,8,o),
(679,19,o),
(667,24,o),
(660,22,q),
(660,22,o),
(660,22,o),
(660,22,o),
(660,22,q),
(661,22,o),
(661,22,o),
(660,22,qs),
(644,19,o),
(631,19,qs),
(597,21,o),
(541,72,o),
(525,123,qs),
(465,307,l),
(465,307,o),
(465,307,o),
(465,307,q),
(463,313,o),
(462,318,o),
(460,324,o),
(458,329,q),
(458,329,o),
(458,329,o),
(458,329,q),
(339,700,l),
(320,700,l),
(206,345,l),
(198,346,o),
(199,346,o),
(206,345,q),
(206,345,o),
(206,345,o),
(206,345,o),
(206,345,q),
(205,340,o),
(203,335,o),
(202,330,o),
(200,325,q),
(200,325,o),
(200,325,o),
(200,325,o),
(200,325,q),
(193,326,o),
(191,326,o),
(200,325,q),
(135,124,ls),
(119,73,o),
(64,22,o),
(31,20,qs),
(14,19,o),
(-3,23,q),
(-3,23,o),
(-3,23,o),
(-3,23,q),
(-3,23,o),
(-3,23,o),
(-3,23,o),
(-3,23,q),
(-13,26,o),
(-24,19,o),
(-18,7,o),
(-7,4,q),
(-7,4,o),
(-7,4,o),
(-7,4,o),
(-7,4,q),
(-7,4,o),
(-7,4,o),
(-7,4,q),
(12,-1,o),
(31,0,qs)
);
},
{
closed = 1;
nodes = (
(439,327,l),
(382,327,o),
(294,334,o),
(226,342,q),
(330,675,l)
);
}
);
width = 600;
}
);
note = A;
unicode = (65,97);
},
{
glyphname = B;
lastChange = "2025-10-03 15:18:30 +0000";
layers = (
{
layerId = m01;
shapes = (
{
closed = 1;
nodes = (
(28,-10,o),
(98,7,o),
(166,0,qs),
(326,-16,o),
(495,-10,o),
(590,60,o),
(602,143,qs),
(617,252,o),
(474,363,o),
(296,369,o),
(296,334,qs),
(296,301,o),
(450,314,o),
(599,405,o),
(604,478,qs),
(610,570,o),
(445,658,o),
(328,671,qs),
(278,677,o),
(211,677,qs),
(174,677,o),
(124,633,o),
(124,592,qs),
(124,555,o),
(186,508,o),
(262,533,o),
(262,568,qs),
(262,584,o),
(243,596,o),
(223,584,o),
(223,568,qs),
(223,547,o),
(186,533,o),
(144,563,o),
(144,592,qs),
(144,624,o),
(181,657,o),
(211,657,qs),
(279,658,o),
(320,653,qs),
(346,650,ls),
(445,639,o),
(589,557,o),
(584,478,qs),
(580,414,o),
(452,338,o),
(316,316,o),
(316,334,qs),
(316,353,o),
(473,338,o),
(595,242,o),
(582,146,qs),
(572,74,o),
(487,11,o),
(322,0,o),
(182,17,qs),
(166,19,l),
(157,20,ls),
(100,26,o),
(10,5,o),
(2,-33,qs),
(-7,-75,o),
(50,-116,o),
(141,-88,o),
(163,-39,qs),
(167,-31,o),
(177,-1,qs),
(192,48,o),
(224,199,qs),
(237,263,o),
(251,324,qs),
(276,435,o),
(325,607,o),
(354,668,qs),
(363,687,ls),
(366,693,o),
(361,704,o),
(349,703,o),
(342,694,qs),
(319,664,o),
(267,480,o),
(232,328,qs),
(228,308,o),
(225,299,q),
(176,72,o),
(151,1,qs),
(141,-32,o),
(134,-43,qs),
(109,-80,o),
(50,-92,o),
(17,-63,o),
(22,-39,qs)
);
}
);
width = 600;
},
{
layerId = "9DD8F9B5-8EC5-4AE3-8F26-4C0C48EFD34C";
shapes = (
{
closed = 1;
nodes = (
(27,-22,o),
(93,1,o),
(162,0,qs),
(322,-2,o),
(490,19,o),
(579,105,o),
(583,188,qs),
(590,299,o),
(437,388,o),
(259,379,o),
(262,344,qs),
(265,311,o),
(417,338,o),
(558,441,o),
(557,515,qs),
(554,607,o),
(382,680,o),
(264,683,qs),
(213,684,o),
(146,679,q),
(160,680,o),
(157,679,o),
(146,679,q),
(152,679,o),
(159,680,o),
(154,679,o),
(146,679,qs),
(138,678,o),
(133,667,o),
(140,658,o),
(148,659,qs),
(153,659,o),
(156,659,o),
(152,659,o),
(148,659,q),
(148,659,o),
(148,659,o),
(148,659,q),
(216,665,o),
(258,664,qs),
(284,663,ls),
(384,661,o),
(534,592,o),
(536,513,qs),
(538,449,o),
(417,362,o),
(283,328,o),
(282,346,qs),
(280,364,o),
(438,364,o),
(568,287,o),
(563,190,qs),
(560,117,o),
(477,39,o),
(317,14,o),
(176,19,qs),
(160,19,l),
(151,19,ls),
(93,19,o),
(9,-8,o),
(2,-47,qs),
(-5,-89,o),
(56,-126,o),
(144,-90,o),
(162,-39,qs),
(165,-30,o),
(173,0,qs),
(184,50,o),
(202,204,qs),
(209,268,o),
(218,330,qs),
(233,443,o),
(269,618,o),
(291,682,qs),
(298,702,ls),
(300,708,o),
(294,719,o),
(283,717,o),
(276,707,qs),
(256,675,o),
(220,487,o),
(199,333,qs),
(196,312,o),
(194,303,q),
(165,73,o),
(146,0,q),
(140,-34,o),
(134,-45,qs),
(111,-84,o),
(54,-102,o),
(17,-76,o),
(22,-51,qs)
);
}
);
width = 600;
}
);
note = B;
unicode = (66,98);
},
{
glyphname = C;
lastChange = "2025-10-03 15:18:30 +0000";
layers = (
{
layerId = m01;
shapes = (
{
closed = 1;
nodes = (
(337,22,o),
(403,43,o),
(423,67,qs),
(432,77,o),
(449,77,o),
(452,60,o),
(443,49,qs),
(401,0,o),
(300,0,qs),
(190,0,o),
(56,102,o),
(0,261,o),
(0,354,qs),
(0,472,o),
(99,629,o),
(239,700,o),
(300,700,qs),
(347,700,o),
(432,670,o),
(461,644,qs),
(501,609,o),
(501,569,qs),
(501,522,o),
(438,492,o),
(378,524,o),
(386,554,qs),
(390,569,o),
(413,577,o),
(429,561,o),
(424,545,qs),
(420,529,o),
(450,516,o),
(481,540,o),
(481,569,qs),
(481,582,o),
(463,613,o),
(447,628,qs),
(422,651,o),
(346,679,o),
(300,679,qs),
(239,679,o),
(109,608,o),
(21,461,o),
(21,354,qs),
(21,299,o),
(52,156,o),
(174,22,o),
(300,22,qs)
);
}
);
width = 600;
},
{
layerId = "9DD8F9B5-8EC5-4AE3-8F26-4C0C48EFD34C";
shapes = (
{
closed = 1;
nodes = (
(337,22,o),
(403,43,o),
(423,67,qs),
(432,77,o),
(449,77,o),
(452,60,o),
(443,49,qs),
(401,0,o),
(300,0,qs),
(190,0,o),
(56,102,o),
(0,262,o),
(0,355,qs),
(0,473,o),
(99,629,o),
(239,700,o),
(300,700,qs),
(347,700,o),
(432,670,o),
(461,644,qs),
(501,609,o),
(501,569,qs),
(501,541,o),
(501,524,o),
(501,547,o),
(501,569,q),
(501,561,o),
(489,554,o),
(478,561,o),
(478,569,qs),
(478,576,o),
(478,557,o),
(478,549,o),
(478,569,qs),
(478,583,o),
(463,614,o),
(447,628,qs),
(422,651,o),
(346,679,o),
(300,679,qs),
(239,679,o),
(109,608,o),
(21,462,o),
(21,354,qs),
(21,303,o),
(50,160,o),
(174,22,o),
(300,22,qs)
);
}
);
width = 600;
}
);
note = C;
unicode = (67,99);
},
{
glyphname = D;
lastChange = "2025-10-03 15:18:30 +0000";
layers = (
{
layerId = m01;
shapes = (
{
closed = 1;
nodes = (
(323,702,o),
(335,703,o),
(340,692,o),
(337,686,qs),
(297,609,o),
(236,377,o),
(199,204,qs),
(177,100,o),
(149,-12,o),
(137,-40,qs),
(115,-89,o),
(24,-117,o),
(-29,-73,o),
(-23,-34,qs),
(-17,2,o),
(56,23,o),
(132,23,qs),
(140,23,l),
(216,20,ls),
(343,15,o),
(523,94,o),
(631,223,o),
(637,288,qs),
(649,417,o),
(469,595,o),
(247,656,o),
(184,656,qs),
(151,656,o),
(114,624,o),
(114,589,qs),
(114,563,o),
(156,532,o),
(193,546,o),
(193,567,qs),
(193,583,o),
(212,595,o),
(232,583,o),
(232,567,qs),
(232,532,o),
(156,507,o),
(94,554,o),
(94,589,qs),
(94,633,o),
(144,676,o),
(184,676,qs),
(247,676,o),
(502,601,o),
(670,407,o),
(657,288,qs),
(648,204,o),
(523,68,o),
(326,-6,o),
(219,-2,qs),
(193,0,o),
(140,0,qs),
(124,0,ls),
(75,0,o),
(29,-5,o),
(2,-23,o),
(0,-40,qs),
(-3,-62,o),
(26,-91,o),
(85,-82,o),
(108,-43,qs),
(122,-20,o),
(164,138,o),
(197,284,qs),
(236,457,o),
(291,662,o),
(316,693,qs)
);
}
);
width = 600;
},
{
layerId = "9DD8F9B5-8EC5-4AE3-8F26-4C0C48EFD34C";
shapes = (
{
closed = 1;
nodes = (
(257,715,o),
(269,717,o),
(274,706,o),
(272,700,qs),
(239,620,o),
(198,384,o),
(177,208,qs),
(164,103,o),
(145,-12,o),
(136,-40,qs),
(118,-91,o),
(30,-127,o),
(-26,-88,o),
(-24,-48,qs),
(-21,-12,o),
(50,15,o),
(126,22,qs),
(134,23,l),
(210,26,ls),
(336,32,o),
(509,126,o),
(605,264,o),
(606,330,qs),
(606,459,o),
(412,621,o),
(185,663,o),
(122,657,qs),
(108,656,o),
(111,656,o),
(122,657,qs),
(129,658,o),
(137,658,o),
(131,658,o),
(122,657,qs),
(114,656,o),
(107,666,o),
(113,676,o),
(120,677,qs),
(137,678,o),
(147,679,o),
(133,678,o),
(120,677,qs),
(110,676,o),
(107,676,o),
(120,677,qs),
(183,682,o),
(444,630,o),
(628,451,o),
(625,332,qs),
(624,247,o),
(511,101,o),
(321,10,o),
(214,5,qs),
(188,4,o),
(136,0,qs),
(120,-2,ls),
(71,-6,o),
(25,-15,o),
(0,-35,o),
(0,-52,qs),
(-1,-75,o),
(30,-101,o),
(88,-87,o),
(107,-46,qs),
(119,-22,o),
(147,139,o),
(168,288,qs),
(191,463,o),
(228,672,o),
(250,705,qs)
);
}
);
width = 600;
}
);
note = D;
unicode = (68,100);
},
{
glyphname = E;
lastChange = "2025-10-03 15:18:30 +0000";
layers = (
{
layerId = m01;
shapes = (
{
closed = 1;
nodes = (
(476,626,o),
(445,601,o),
(414,611,o),
(417,627,qs),
(420,644,o),
(403,658,o),
(381,648,o),
(378,633,qs),
(372,601,o),
(439,575,o),
(497,619,o),
(494,655,qs),
(488,716,o),
(387,711,qs),
(334,709,o),
(263,695,qs),
(118,668,l),
(104,688,o),
(59,692,o),
(24,662,o),
(25,638,qs),
(26,622,o),
(44,610,o),
(64,623,o),
(63,639,qs),
(64,655,o),
(88,669,o),
(111,647,o),
(111,618,qs),
(111,607,o),
(67,60,o),
(63,26,q),
(81,26,l),
(83,42,o),
(104,233,o),
(112,341,q),
(113,342,o),
(154,345,q),
(226,358,o),
(296,362,qs),
(333,363,o),
(375,353,o),
(379,334,q),
(380,322,o),
(398,315,o),
(413,326,o),
(412,339,q),
(401,391,o),
(294,382,qs),
(241,380,o),
(114,363,o),
(114,366,qs),
(131,585,o),
(132,618,qs),
(132,633,o),
(128,647,q),
(265,674,ls),
(320,685,o),
(390,690,qs),
(427,692,o),
(472,675,o),
(474,654,qs)
);
},
{
closed = 1;
nodes = (
(282,6,ls),
(355,6,o),
(407,10,qs),
(507,22,o),
(504,82,qs),
(501,118,o),
(437,152,o),
(375,116,o),
(386,86,qs),
(391,72,o),
(415,66,o),
(429,81,o),
(423,97,qs),
(419,113,o),
(447,128,o),
(482,108,o),
(484,80,qs),
(486,58,o),
(443,35,o),
(407,31,qs),
(338,27,o),
(280,27,qs),
(64,26,l),
(61,6,l)
);
}
);
width = 600;
},
{
layerId = "9DD8F9B5-8EC5-4AE3-8F26-4C0C48EFD34C";
shapes = (
{
closed = 1;
nodes = (
(473,654,o),
(473,654,o),
(473,654,o),
(473,654,q),
(475,636,o),
(490,634,o),
(494,646,o),
(494,655,q),
(494,655,o),
(494,655,o),
(494,655,o),
(494,655,q),
(488,716,o),
(387,711,qs),
(334,709,o),
(263,695,qs),
(118,668,l),
(104,688,o),
(59,692,o),
(24,662,o),
(25,638,qs),
(26,622,o),
(44,610,o),
(64,623,o),
(63,639,qs),
(64,655,o),
(88,669,o),
(111,647,o),
(111,618,qs),
(111,607,o),
(67,60,o),
(63,26,q),
(81,26,l),
(83,42,o),
(104,233,o),
(112,341,q),
(113,342,o),
(154,345,q),
(226,358,o),
(296,362,qs),
(333,363,o),
(375,353,o),
(379,334,q),
(380,322,o),
(398,315,o),
(413,326,o),
(412,339,q),
(401,391,o),
(294,382,qs),
(241,380,o),
(114,363,o),
(114,366,qs),
(131,585,o),
(132,618,qs),
(132,633,o),
(128,647,q),
(265,674,ls),
(320,685,o),
(390,690,qs),
(427,692,o),
(472,675,o),
(473,654,q)
);
},
{
closed = 1;
nodes = (
(281,6,ls),
(398,6,o),
(406,10,q),
(505,21,o),
(503,82,q),
(503,82,o),
(503,82,o),
(503,82,o),
(503,82,q),
(501,98,o),
(487,100,o),
(482,91,o),
(483,80,q),
(483,80,o),
(483,80,o),
(483,80,o),
(483,80,q),
(485,58,o),
(442,35,o),
(406,31,qs),
(337,27,o),
(279,27,qs),
(63,27,l),
(60,6,l)
);
}
);
width = 600;
}
);
note = E;
unicode = (69,101);
},
{
glyphname = F;
lastChange = "2025-10-03 15:18:30 +0000";
layers = (
{
layerId = m01;
shapes = (
{
closed = 1;
nodes = (
(296,360,o),
(366,360,qs),
(403,360,o),
(444,344,o),
(446,325,qs),
(446,313,o),
(463,304,o),
(479,314,o),
(479,327,qs),
(479,380,o),
(365,380,qs),
(312,380,o),
(240,377,qs),
(184,377,o),
(185,380,q),
(221,597,o),
(225,629,qs),
(226,644,o),
(223,659,q),
(362,674,ls),
(418,680,o),
(488,678,qs),
(525,676,o),
(566,662,o),
(568,643,qs),
(568,631,o),
(585,622,o),
(601,632,o),
(601,645,q),
(595,698,o),
(487,698,q),
(434,702,o),
(362,695,qs),
(215,680,l),
(205,697,o),
(188,704,qs),
(165,712,o),
(121,685,o),
(120,659,qs),
(119,643,o),
(136,629,o),
(157,640,o),
(158,656,qs),
(159,668,o),
(175,681,o),
(184,679,qs),
(194,677,o),
(205,654,o),
(204,631,qs),
(203,612,o),
(118,81,o),
(109,55,qs),
(96,16,o),
(34,-13,o),
(3,0,qs),
(-20,8,o),
(-43,61,o),
(-36,89,qs),
(-29,116,o),
(4,127,o),
(22,106,o),
(16,91,qs),
(10,76,o),
(24,58,o),
(47,61,o),
(53,75,qs),
(65,104,o),
(24,150,o),
(-44,139,o),
(-57,97,qs),
(-66,67,o),
(-53,18,o),
(-21,-13,o),
(-5,-19,qs),
(13,-26,o),
(69,-24,o),
(118,10,o),
(128,48,qs),
(134,72,o),
(181,355,q),
(182,354,o),
(223,356,qs),
(240,357,ls)
);
}
);
width = 600;
},
{
layerId = "9DD8F9B5-8EC5-4AE3-8F26-4C0C48EFD34C";
shapes = (
{
closed = 1;
nodes = (
(296,360,o),
(366,360,qs),
(403,360,o),
(444,344,o),
(446,325,qs),
(446,313,o),
(463,304,o),
(479,314,o),
(479,327,q),
(473,380,o),
(365,380,qs),
(312,380,o),
(240,377,qs),
(184,377,o),
(185,380,q),
(221,597,o),
(225,629,qs),
(226,644,o),
(223,659,q),
(362,674,ls),
(418,680,o),
(488,678,qs),
(525,676,o),
(566,662,o),
(568,643,qs),
(568,631,o),
(585,622,o),
(601,632,o),
(601,645,q),
(595,698,o),
(487,698,q),
(434,701,o),
(362,695,qs),
(215,680,l),
(205,697,o),
(188,704,q),
(188,704,o),
(188,704,o),
(188,704,q),
(178,708,o),
(166,696,o),
(173,680,o),
(184,679,q),
(184,679,o),
(184,679,o),
(184,679,q),
(194,677,o),
(205,654,o),
(204,631,qs),
(203,612,o),
(118,81,o),
(109,55,qs),
(96,16,o),
(34,-13,o),
(3,0,q),
(3,0,o),
(3,0,o),
(3,0,q),
(3,0,o),
(3,0,o),
(3,0,o),
(3,0,q),
(-5,4,o),
(-16,-3,o),
(-13,-16,o),
(-5,-19,q),
(-5,-19,o),
(-5,-19,o),
(-5,-19,o),
(-5,-19,q),
(-5,-19,o),
(-5,-19,o),
(-5,-19,o),
(-5,-19,q),
(15,-26,o),
(70,-24,o),
(118,10,o),
(128,48,qs),
(134,72,o),
(181,355,q),
(182,354,o),
(223,356,qs),
(240,357,ls)
);
}
);
width = 600;
}
);
note = F;
unicode = (70,102);
},
{
glyphname = G;
lastChange = "2025-10-03 15:18:30 +0000";
layers = (
{
layerId = m01;
shapes = (
{
closed = 1;
nodes = (
(408,0,o),
(532,117,o),
(569,263,o),
(569,305,qs),
(569,317,l),
(483,324,o),
(427,332,qs),
(383,340,o),
(360,342,qs),
(313,346,o),
(275,297,o),
(298,240,o),
(329,237,qs),
(345,236,o),
(359,254,o),
(349,275,o),
(333,276,qs),
(317,277,o),
(305,304,o),
(329,325,o),
(358,322,qs),
(362,322,o),
(443,307,o),
(547,297,q),
(547,249,o),
(506,117,o),
(391,20,o),
(301,20,qs),
(175,20,o),
(51,159,o),
(22,303,o),
(22,354,qs),
(22,355,ls),
(22,462,o),
(110,608,o),
(240,679,o),
(301,679,qs),
(353,679,o),
(436,643,o),
(475,591,o),
(475,569,qs),
(475,540,o),
(444,516,o),
(414,529,o),
(418,545,qs),
(423,561,o),
(407,577,o),
(384,569,o),
(380,554,qs),
(372,524,o),
(432,492,o),
(495,522,o),
(495,569,qs),
(495,602,o),
(446,662,o),
(353,700,o),
(301,700,qs),
(240,700,o),
(100,629,o),
(1,473,o),
(1,355,qs),
(1,262,o),
(57,102,o),
(191,0,o),
(301,0,qs)
);
}
);
width = 600;
},
{
layerId = "9DD8F9B5-8EC5-4AE3-8F26-4C0C48EFD34C";
shapes = (
{
closed = 1;
nodes = (
(408,0,o),
(532,117,o),
(569,263,o),
(569,305,qs),
(569,317,l),
(483,324,o),
(427,332,qs),
(382,340,o),
(360,342,q),
(360,342,o),
(360,342,o),
(360,342,o),
(360,342,q),
(334,345,o),
(331,326,o),
(358,322,o),
(358,322,q),
(358,322,o),
(358,322,o),
(358,322,o),
(358,322,q),
(362,322,o),
(443,307,o),
(547,297,q),
(547,249,o),
(506,117,o),
(391,20,o),
(301,20,qs),
(175,20,o),
(51,159,o),
(22,303,o),
(22,354,qs),
(22,355,ls),
(22,462,o),
(110,608,o),
(240,679,o),
(301,679,qs),
(353,679,o),
(436,643,o),
(475,591,o),
(475,569,q),
(475,569,o),
(475,569,o),
(475,569,o),
(475,569,q),
(475,569,o),
(474,536,o),
(495,537,o),
(495,569,q),
(495,569,o),
(495,569,o),
(495,569,o),
(495,569,q),
(495,602,o),
(446,662,o),
(353,700,o),
(301,700,qs),
(240,700,o),
(100,629,o),
(1,473,o),
(1,355,qs),
(1,262,o),
(57,102,o),
(191,0,o),
(301,0,qs)
);
}
);
width = 600;
}
);
note = G;
unicode = (71,103);
},
{
glyphname = H;
lastChange = "2025-10-03 15:18:30 +0000";
layers = (
{
layerId = m01;
shapes = (
{
closed = 1;
nodes = (
(393,528,o),
(459,721,o),
(505,704,qs),
(542,690,o),
(508,560,o),
(370,428,o),
(240,404,o),
(160,381,o),
(108,358,o),
(78,335,qs),
(0,276,o),
(-93,137,o),
(-93,21,o),
(-46,5,qs),
(0,-11,o),
(82,71,o),
(108,235,o),
(116,373,qs),
(124,515,o),
(119,661,o),
(104,688,qs),
(83,724,o),
(31,724,qs),
(-4,724,o),
(-56,677,o),
(-55,639,qs),
(-54,603,o),
(-13,564,o),
(11,564,qs),
(36,564,o),
(72,592,o),
(73,624,qs),
(73,656,o),
(37,679,o),
(0,660,o),
(0,639,qs),
(0,628,o),
(13,620,o),
(27,628,o),
(27,639,qs),
(27,650,o),
(42,659,o),
(55,644,o),
(55,624,qs),
(55,603,o),
(28,582,o),
(11,582,qs),
(-11,582,o),
(-36,616,o),
(-36,639,qs),
(-36,668,o),
(2,704,o),
(30,704,qs),
(53,704,o),
(88,685,o),
(94,664,qs),
(100,644,o),
(103,499,o),
(96,375,qs),
(88,238,o),
(67,90,o),
(-6,7,o),
(-44,26,qs),
(-78,43,o),
(-69,135,o),
(15,258,o),
(88,318,qs),
(110,336,o),
(205,378,o),
(381,409,o),
(529,552,o),
(559,705,o),
(512,723,qs),
(454,745,o),
(373,543,o),
(373,349,qs),
(373,204,o),
(426,37,o),
(498,3,qs),
(544,-18,o),
(616,-9,o),
(640,17,qs),
(652,30,o),
(645,52,o),
(621,55,o),
(611,43,qs),
(591,20,o),
(536,12,o),
(509,24,qs),
(444,55,o),
(393,205,o),
(393,347,qs)
);
}
);
width = 600;
},
{
layerId = "9DD8F9B5-8EC5-4AE3-8F26-4C0C48EFD34C";
shapes = (
{
closed = 1;
nodes = (
(393,528,o),
(459,721,o),
(505,704,qs),
(542,690,o),
(508,560,o),
(370,428,o),
(240,404,o),
(160,381,o),
(108,358,o),
(78,335,qs),
(0,276,o),
(-93,139,o),
(-93,21,o),
(-46,5,qs),
(0,-11,o),
(82,71,o),
(108,235,o),
(116,373,qs),
(124,515,o),
(119,661,o),
(104,688,qs),
(83,724,o),
(31,724,q),
(31,724,o),
(31,724,o),
(31,724,q),
(31,724,o),
(31,724,o),
(31,724,q),
(31,724,o),
(31,724,o),
(31,724,q),
(31,724,o),
(31,724,o),
(31,724,o),
(31,724,q),
(19,724,o),
(10,714,o),
(19,704,o),
(30,704,qs),
(34,704,o),
(37,704,o),
(33,704,o),
(30,704,q),
(30,704,o),
(30,704,o),
(30,704,q),
(30,704,o),
(30,704,o),
(30,704,q),
(30,704,o),
(30,704,o),
(30,704,q),
(53,704,o),
(88,685,o),
(94,664,qs),
(100,644,o),
(103,499,o),
(96,375,qs),
(88,238,o),
(67,90,o),
(-6,7,o),
(-44,26,qs),
(-78,43,o),
(-70,135,o),
(16,258,o),
(88,318,qs),
(111,337,o),
(205,378,o),
(381,409,o),
(529,552,o),
(559,705,o),
(512,723,qs),
(454,745,o),
(373,543,o),
(373,349,qs),
(373,204,o),
(426,35,o),
(498,3,q),
(498,3,o),
(498,3,o),
(498,3,q),
(507,-2,o),
(520,5,o),
(519,19,o),
(509,24,qs),
(504,27,o),
(505,26,o),
(509,24,qs),
(444,55,o),
(393,205,o),
(393,347,qs)
);
}
);
width = 600;
}
);
note = H;
unicode = (72,104);
},
{
glyphname = I;
lastChange = "2025-10-03 15:18:30 +0000";
layers = (
{
layerId = m01;
shapes = (
{
closed = 1;
nodes = (
(443,653,o),
(469,655,qs),
(504,659,o),
(542,683,o),
(544,704,qs),
(545,717,o),
(529,728,o),
(511,719,o),
(510,707,qs),
(509,694,o),
(487,680,o),
(468,677,qs),
(452,674,o),
(430,674,qs),
(377,673,o),
(279,682,o),
(210,691,qs),
(147,699,ls),
(100,705,o),
(62,654,o),
(85,597,o),
(116,594,qs),
(132,593,o),
(146,611,o),
(136,632,o),
(120,633,qs),
(104,634,o),
(92,661,o),
(116,682,o),
(145,679,qs),
(170,676,o),
(194,673,qs),
(344,653,o),
(428,653,qs)
);
},
{
closed = 1;
nodes = (
(300,77,o),
(326,294,o),
(343,503,qs),
(356,661,l),
(336,661,l),
(323,506,ls),
(304,279,o),
(276,63,o),
(246,22,q),
(275,24,l)
);
},
{
closed = 1;
nodes = (
(256,0,o),
(406,20,qs),
(431,23,o),
(455,26,qs),
(484,29,o),
(508,8,o),
(496,-19,o),
(480,-20,qs),
(464,-21,o),
(454,-42,o),
(468,-60,o),
(484,-59,qs),
(512,-57,o),
(537,-8,o),
(513,41,o),
(477,46,qs),
(472,47,o),
(460,47,o),
(453,46,qs),
(390,38,ls),
(321,29,o),
(223,20,o),
(170,21,qs),
(149,21,o),
(132,24,qs),
(113,27,o),
(91,41,o),
(90,54,qs),
(89,66,o),
(71,75,o),
(55,64,o),
(56,51,qs),
(58,30,o),
(96,6,o),
(131,2,qs),
(157,0,o),
(172,0,qs)
);
}
);
width = 600;
},
{
layerId = "9DD8F9B5-8EC5-4AE3-8F26-4C0C48EFD34C";
shapes = (
{
closed = 1;
nodes = (
(441,653,o),
(469,655,q),
(469,655,o),
(469,655,o),
(469,655,q),
(482,656,o),
(491,669,o),
(480,679,o),
(468,677,q),
(468,677,o),
(468,677,o),
(468,677,q),
(452,674,o),
(430,674,qs),
(377,673,o),
(262,684,o),
(196,693,qs),
(147,699,l),
(147,699,o),
(147,699,o),
(147,699,o),
(147,699,q),
(138,700,o),
(128,691,o),
(135,680,o),
(145,679,q),
(145,679,o),
(145,679,o),
(145,679,o),
(145,679,q),
(170,676,o),
(194,673,qs),
(344,653,o),
(428,653,qs)
);
},
{
closed = 1;
nodes = (
(291,77,o),
(327,294,o),
(343,503,qs),
(356,661,l),
(336,661,l),
(323,506,ls),
(305,279,o),
(267,63,o),
(237,22,q),
(266,24,l)
);
},
{
closed = 1;
nodes = (
(254,0,o),
(404,20,qs),
(430,23,o),
(455,26,q),
(445,26,o),
(433,26,o),
(441,26,o),
(455,26,qs),
(458,26,o),
(464,29,o),
(467,34,o),
(467,38,qs),
(467,42,o),
(461,46,o),
(455,46,o),
(453,46,q),
(453,46,o),
(453,46,o),
(453,46,q),
(388,38,ls),
(321,29,o),
(223,20,o),
(170,21,qs),
(147,21,o),
(132,24,q),
(132,24,o),
(132,24,o),
(132,24,q),
(122,26,o),
(113,16,o),
(121,3,o),
(131,2,q),
(131,2,o),
(131,2,o),
(131,2,q),
(155,0,o),
(172,0,qs)
);
}
);
width = 600;
}
);
note = I;
unicode = (73,105);
},
{
glyphname = J;
lastChange = "2025-10-03 15:18:30 +0000";
layers = (
{
layerId = m01;
shapes = (
{
closed = 1;
nodes = (
(528,654,o),
(556,663,qs),
(575,668,o),
(597,689,o),
(598,705,qs),
(599,718,o),
(583,729,o),
(565,720,o),
(564,708,qs),
(562,696,o),
(554,690,qs),
(544,682,o),
(511,676,o),
(484,675,qs),
(431,674,o),
(333,683,o),
(264,692,qs),
(201,700,ls),
(154,706,o),
(116,655,o),
(139,598,o),
(170,595,qs),
(186,594,o),
(200,612,o),
(190,633,o),
(174,634,qs),
(158,635,o),
(146,662,o),
(170,683,o),
(199,680,qs),
(224,677,o),
(248,674,qs),
(398,654,o),
(482,654,qs)
);
},
{
closed = 1;
nodes = (
(325,-5,o),
(411,57,o),
(429,147,qs),
(443,219,o),
(458,387,o),
(469,519,qs),
(481,664,l),
(462,665,l),
(453,564,o),
(447,481,qs),
(438,361,o),
(422,212,o),
(410,152,qs),
(397,90,o),
(355,34,o),
(295,19,o),
(266,21,qs),
(221,25,o),
(166,66,o),
(143,123,o),
(146,152,qs),
(149,188,o),
(192,230,o),
(223,226,qs),
(252,221,o),
(271,194,o),
(253,171,o),
(237,174,qs),
(221,177,o),
(206,160,o),
(215,138,o),
(230,136,qs),
(261,131,o),
(299,179,o),
(275,236,o),
(228,245,qs),
(180,252,o),
(129,193,o),
(126,154,qs),
(123,128,o),
(144,61,o),
(207,7,o),
(264,1,qs)
);
}
);
width = 600;
},
{
layerId = "9DD8F9B5-8EC5-4AE3-8F26-4C0C48EFD34C";
shapes = (
{
closed = 1;
nodes = (
(518,655,o),
(554,655,q),
(554,655,o),
(554,655,o),
(554,655,q),
(558,655,o),
(563,658,o),
(565,662,o),
(565,665,qs),
(565,675,o),
(554,676,qs),
(531,676,o),
(508,675,o),
(484,675,qs),
(429,674,o),
(324,684,o),
(257,693,qs),
(201,700,l),
(201,700,o),
(201,700,o),
(201,700,o),
(201,700,q),
(196,701,o),
(189,698,o),
(185,693,o),
(185,690,qs),
(185,687,o),
(189,682,o),
(196,680,o),
(199,680,qs),
(221,678,o),
(242,675,qs),
(394,654,o),
(482,654,qs)
);
},
{
closed = 1;
nodes = (
(325,-5,o),
(411,57,o),
(429,147,qs),
(442,219,o),
(459,387,o),
(469,519,qs),
(481,664,l),
(462,665,l),
(453,564,o),
(447,481,qs),
(438,361,o),
(422,212,o),
(410,152,qs),
(397,90,o),
(355,34,o),
(295,19,o),
(266,21,qs),
(221,25,o),
(165,66,o),
(143,124,o),
(146,152,q),
(146,152,o),
(146,152,o),
(146,152,q),
(146,152,o),
(146,152,o),
(146,152,o),
(146,152,q),
(146,155,o),
(144,160,o),
(139,163,o),
(137,163,qs),
(134,163,o),
(129,160,o),
(126,155,o),
(126,152,q),
(126,152,o),
(126,152,o),
(126,152,q),
(123,126,o),
(144,60,o),
(207,6,o),
(264,1,qs)
);
}
);
width = 600;
}
);
note = J;
unicode = (74,106);
},
{
glyphname = K;
lastChange = "2025-10-03 15:18:30 +0000";
layers = (
{
layerId = m01;
shapes = (
{
closed = 1;
nodes = (
(258,520,o),
(334,627,o),
(446,703,o),
(519,703,qs),
(528,703,o),
(536,713,o),
(528,723,o),
(519,723,qs),
(439,723,o),
(323,649,o),
(249,546,o),
(204,464,qs),
(188,435,o),
(154,377,o),
(139,357,qs),
(75,273,o),
(-1,118,o),
(1,13,o),
(49,2,qs),
(124,-15,o),
(182,224,o),
(177,543,o),
(163,675,qs),
(160,703,o),
(153,723,qs),
(142,750,o),
(103,781,o),
(70,781,qs),
(23,781,o),
(-7,718,o),
(25,658,o),
(55,666,qs),
(70,670,o),
(78,693,o),
(62,709,o),
(46,704,qs),
(30,700,o),
(17,730,o),
(41,761,o),
(70,761,qs),
(92,761,o),
(122,743,o),
(131,723,qs),
(140,703,o),
(143,674,qs),
(151,613,o),
(165,289,o),
(124,5,o),
(53,23,qs),
(18,32,o),
(21,121,o),
(92,260,o),
(154,342,qs),
(179,379,l),
(229,392,o),
(293,345,o),
(324,269,o),
(339,211,qs),
(350,168,o),
(353,161,qs),
(373,106,o),
(453,29,o),
(556,-3,o),
(611,6,qs),
(662,15,o),
(718,61,o),
(721,99,qs),
(722,115,o),
(704,130,o),
(683,119,o),
(682,103,qs),
(679,73,o),
(638,36,o),
(609,30,qs),
(530,16,o),
(404,86,o),
(371,175,qs),
(369,180,o),
(357,224,qs),
(342,280,o),
(310,356,o),
(244,406,o),
(190,400,q),
(211,436,ls)
);
}
);
width = 600;
},
{
layerId = "9DD8F9B5-8EC5-4AE3-8F26-4C0C48EFD34C";
shapes = (
{
closed = 1;
nodes = (
(258,520,o),
(334,627,o),
(446,703,o),
(519,703,qs),
(528,703,o),
(536,713,o),
(528,723,o),
(519,723,qs),
(439,723,o),
(323,649,o),
(249,546,o),
(204,464,qs),
(188,435,o),
(154,377,o),
(139,357,qs),
(75,273,o),
(-1,118,o),
(1,13,o),
(49,2,qs),
(124,-15,o),
(182,224,o),
(177,543,o),
(163,675,qs),
(160,703,o),
(153,723,q),
(153,723,o),
(153,723,o),
(153,723,q),
(153,723,o),
(153,723,o),
(153,723,o),
(153,723,q),
(149,734,o),
(136,740,o),
(128,731,o),
(131,723,q),
(131,723,o),
(131,723,o),
(131,723,o),
(131,723,q),
(131,723,o),
(131,723,o),
(131,723,q),
(140,701,o),
(143,674,qs),
(151,613,o),
(165,289,o),
(124,5,o),
(53,23,qs),
(18,32,o),
(21,121,o),
(92,260,o),
(154,342,qs),
(179,379,l),
(229,392,o),
(293,345,o),
(324,269,o),
(339,211,qs),
(350,168,o),
(353,161,qs),
(373,106,o),
(453,29,o),
(556,-3,o),
(611,6,q),
(611,6,o),
(611,6,o),
(611,6,q),
(621,7,o),
(629,21,o),
(621,31,o),
(609,30,q),
(609,30,o),
(609,30,o),
(609,30,q),
(530,16,o),
(404,86,o),
(371,175,qs),
(369,180,o),
(357,224,qs),
(342,280,o),
(310,356,o),
(244,406,o),
(190,400,q),
(211,436,ls)
);
}
);
width = 600;
}
);
note = K;
unicode = (75,107);
},
{
glyphname = L;
lastChange = "2025-10-03 15:18:30 +0000";
layers = (
{
layerId = m01;
shapes = (
{
closed = 1;
nodes = (
(475,0,o),
(351,25,o),
(257,48,qs),
(142,78,o),
(28,91,o),
(21,63,qs),
(16,44,o),
(50,19,o),
(92,19,qs),
(133,19,o),
(215,122,o),
(285,271,o),
(333,390,qs),
(371,483,o),
(421,593,o),
(475,678,o),
(500,691,qs),
(542,713,o),
(597,678,o),
(598,613,o),
(570,600,qs),
(556,593,o),
(536,606,o),
(538,629,o),
(553,635,qs),
(568,642,o),
(567,672,o),
(536,683,o),
(512,668,qs),
(474,645,o),
(405,507,o),
(354,377,qs),
(305,254,o),
(235,104,o),
(144,-1,o),
(92,-1,qs),
(45,-1,o),
(-4,34,o),
(2,65,qs),
(8,96,o),
(81,108,o),
(185,89,o),
(275,66,qs),
(371,42,o),
(477,20,o),
(526,19,qs),
(568,19,o),
(618,64,o),
(618,97,qs),
(618,122,o),
(581,167,o),
(550,167,qs),
(521,167,o),
(499,144,o),
(513,119,o),
(529,119,qs),
(545,119,o),
(557,100,o),
(545,80,o),
(529,80,qs),
(498,80,o),
(469,134,o),
(503,187,o),
(550,187,qs),
(582,187,o),
(622,155,o),
(638,114,o),
(638,97,qs),
(638,77,o),
(618,33,o),
(567,0,o),
(526,0,qs)
);
}
);
width = 600;
},
{
layerId = "9DD8F9B5-8EC5-4AE3-8F26-4C0C48EFD34C";
shapes = (
{
closed = 1;
nodes = (
(490,-3,o),
(374,16,o),
(281,42,qs),
(148,79,o),
(34,91,o),
(23,63,q),
(18,44,o),
(50,19,o),
(92,19,qs),
(132,19,o),
(188,116,o),
(223,254,o),
(246,373,qs),
(265,471,o),
(292,588,o),
(331,678,o),
(358,691,q),
(358,691,o),
(358,691,o),
(358,691,o),
(358,691,q),
(365,694,o),
(377,688,o),
(378,675,o),
(370,668,q),
(370,668,o),
(370,668,o),
(370,668,o),
(370,668,q),
(332,639,o),
(290,493,o),
(266,358,qs),
(245,241,o),
(209,98,o),
(143,-1,o),
(92,-1,qs),
(45,-1,o),
(-4,34,o),
(2,65,qs),
(8,94,o),
(75,113,o),
(202,85,o),
(295,61,qs),
(379,40,o),
(487,18,o),
(526,19,q),
(526,19,o),
(526,19,o),
(526,19,q),
(526,19,o),
(526,19,o),
(526,19,q),
(526,19,o),
(526,19,o),
(526,19,o),
(526,19,q),
(534,19,o),
(540,9,o),
(534,0,o),
(526,0,q),
(526,0,o),
(526,0,o),
(526,0,o),
(526,0,q),
(526,0,o),
(526,0,o),
(526,0,o),
(526,0,q),
(517,0,o),
(511,0,o),
(519,0,o),
(526,0,q)
);
}
);
width = 600;
}
);
note = L;
unicode = (76,108);
},
{
glyphname = M;
lastChange = "2025-10-03 15:18:30 +0000";
layers = (
{
layerId = m01;
shapes = (
{
closed = 1;
nodes = (
(189,0,o),
(177,478,o),
(179,715,o),
(246,700,qs),
(297,688,o),
(220,501,o),
(25,145,o),
(-22,66,qs),
(-38,39,o),
(-72,9,o),
(-92,2,qs),
(-111,-4,o),
(-148,0,o),
(-161,6,qs),
(-187,18,o),
(-224,80,o),
(-206,123,qs),
(-185,166,o),
(-123,174,o),
(-86,125,o),
(-100,97,qs),
(-107,83,o),
(-129,81,o),
(-142,100,o),
(-135,114,qs),
(-129,129,o),
(-146,151,o),
(-176,141,o),
(-187,115,qs),
(-200,88,o),
(-175,34,o),
(-153,24,qs),
(-138,17,o),
(-107,17,o),
(-92,23,qs),
(-77,30,o),
(-52,56,o),
(-40,75,qs),
(11,155,o),
(198,505,o),
(277,673,o),
(242,680,qs),
(196,689,o),
(195,468,o),
(214,21,o),
(239,21,qs),
(285,21,o),
(506,506,o),
(591,672,o),
(555,680,qs),
(510,692,o),
(510,463,o),
(495,166,o),
(528,75,qs),
(535,57,o),
(565,23,o),
(576,21,qs),
(595,18,o),
(601,8,o),
(593,-3,o),
(576,0,qs),
(557,3,o),
(524,36,o),
(510,66,qs),
(472,149,o),
(494,478,o),
(490,712,o),
(562,700,qs),
(615,690,o),
(528,502,o),
(293,0,o),
(236,0,qs)
);
}
);
width = 600;
},
{
layerId = "9DD8F9B5-8EC5-4AE3-8F26-4C0C48EFD34C";
shapes = (
{
closed = 1;
nodes = (
(190,0,o),
(178,478,o),
(180,715,o),
(247,700,qs),
(298,688,o),
(221,501,o),
(26,145,o),
(-21,66,qs),
(-37,39,o),
(-76,6,o),
(-91,2,q),
(-91,2,o),
(-91,2,o),
(-91,2,qs),
(-91,2,o),
(-91,2,o),
(-91,2,q),
(-91,2,o),
(-91,2,o),
(-91,2,o),
(-91,2,q),
(-118,-6,o),
(-124,12,o),
(-101,19,o),
(-91,23,q),
(-91,23,o),
(-91,23,o),
(-91,23,o),
(-91,23,q),
(-91,23,o),
(-91,23,o),
(-91,23,q),
(-91,23,o),
(-91,23,o),
(-91,23,q),
(-76,30,o),
(-51,56,o),
(-39,75,qs),
(12,155,o),
(199,505,o),
(278,673,o),
(243,680,qs),
(197,689,o),
(196,468,o),
(214,21,o),
(240,21,qs),
(286,21,o),
(507,506,o),
(592,672,o),
(556,680,qs),
(511,692,o),
(511,463,o),
(496,166,o),
(529,75,qs),
(536,57,o),
(566,23,o),
(577,21,qs),
(596,18,o),
(602,8,o),
(594,-3,o),
(577,0,qs),
(558,3,o),
(525,36,o),
(511,66,qs),
(473,149,o),
(495,478,o),
(491,712,o),
(563,700,qs),
(616,690,o),
(529,502,o),
(294,0,o),
(237,0,qs)
);
}
);
width = 600;
}
);
note = M;
unicode = (77,109);
},
{
glyphname = N;
lastChange = "2025-10-03 15:18:30 +0000";
layers = (
{
layerId = m01;
shapes = (
{
closed = 1;
nodes = (
(389,0,o),
(191,567,o),
(198,700,o),
(246,700,qs),
(286,700,o),
(285,567,o),
(194,150,o),
(156,68,qs),
(139,31,o),
(88,0,o),
(39,0,o),
(21,8,qs),
(-5,20,o),
(-39,78,o),
(-29,121,qs),
(-19,164,o),
(59,176,o),
(96,127,o),
(82,99,qs),
(75,85,o),
(53,83,o),
(40,102,o),
(47,116,qs),
(53,131,o),
(36,153,o),
(-4,141,o),
(-10,115,qs),
(-18,82,o),
(7,36,o),
(29,26,qs),
(59,12,o),
(121,39,o),
(138,77,qs),
(176,164,o),
(262,563,o),
(271,680,o),
(246,680,qs),
(214,680,o),
(215,563,o),
(400,21,o),
(471,21,qs),
(496,21,o),
(529,107,o),
(545,237,o),
(545,346,qs),
(545,443,o),
(553,563,o),
(577,661,o),
(602,682,qs),
(639,712,o),
(700,687,o),
(712,622,o),
(687,604,qs),
(674,595,o),
(652,604,o),
(651,627,o),
(665,635,q),
(678,645,o),
(671,674,o),
(639,679,o),
(619,661,qs),
(594,640,o),
(571,546,o),
(565,432,o),
(565,344,qs),
(564,230,o),
(547,94,o),
(511,0,o),
(471,0,qs)
);
}
);
width = 600;
},
{
layerId = "9DD8F9B5-8EC5-4AE3-8F26-4C0C48EFD34C";
shapes = (
{
closed = 1;
nodes = (
(389,0,o),
(191,567,o),
(198,700,o),
(246,700,qs),
(286,700,o),
(285,567,o),
(194,150,o),
(156,68,qs),
(139,31,o),
(88,0,o),
(39,0,o),
(21,8,q),
(21,8,o),
(21,8,o),
(21,8,q),
(21,8,o),
(21,8,o),
(21,8,o),
(21,8,q),
(0,20,o),
(-1,42,o),
(29,26,o),
(29,26,q),
(29,26,o),
(29,26,o),
(29,26,o),
(29,26,q),
(29,26,o),
(29,26,o),
(29,26,q),
(59,12,o),
(121,39,o),
(138,77,qs),
(176,164,o),
(262,563,o),
(271,680,o),
(246,680,qs),
(214,680,o),
(215,563,o),
(400,21,o),
(471,21,qs),
(496,21,o),
(529,107,o),
(545,237,o),
(545,346,qs),
(545,443,o),
(553,563,o),
(577,661,o),
(602,682,q),
(602,682,o),
(602,682,o),
(602,682,o),
(602,682,q),
(626,700,o),
(644,682,o),
(619,661,o),
(619,661,q),
(619,661,o),
(619,661,o),
(619,661,o),
(619,661,q),
(594,640,o),
(571,546,o),
(565,432,o),
(565,344,qs),
(564,230,o),
(547,94,o),
(511,0,o),
(471,0,qs)
);
}
);
width = 600;
}
);
note = N;
unicode = (78,110);
},
{
glyphname = O;
lastChange = "2025-10-03 15:18:30 +0000";
layers = (
{
layerId = m01;
shapes = (
{
closed = 1;
nodes = (
(324,240,o),
(261,281,o),
(226,356,o),
(229,404,qs),
(235,509,o),
(407,583,o),
(571,475,o),
(571,350,qs),
(571,261,o),
(498,111,o),
(374,23,o),
(301,23,qs),
(227,23,o),
(102,111,o),
(29,261,o),
(29,350,qs),
(29,439,o),
(102,589,o),
(227,677,o),
(301,677,q),
(301,700,l),
(222,700,o),
(88,606,o),
(10,445,o),
(10,350,qs),
(10,255,o),
(88,94,o),
(222,0,o),
(301,0,qs),
(380,0,o),
(512,94,o),
(590,255,o),
(590,350,qs),
(590,489,o),
(409,606,o),
(217,521,o),
(209,404,q),
(209,404,o),
(209,348,o),
(242,266,o),
(324,220,o),
(362,220,qs),
(428,220,o),
(483,288,o),
(483,322,qs),
(483,342,o),
(465,385,o),
(415,422,o),
(385,422,qs),
(338,422,o),
(304,369,o),
(333,315,o),
(364,315,qs),
(380,315,o),
(392,335,o),
(380,354,o),
(364,354,qs),
(348,354,o),
(334,379,o),
(356,402,o),
(385,402,qs),
(416,402,o),
(463,355,o),
(463,322,qs),
(463,289,o),
(415,240,o),
(362,240,qs)
);
}
);
width = 600;
},
{
layerId = "9DD8F9B5-8EC5-4AE3-8F26-4C0C48EFD34C";
shapes = (
{
closed = 1;
nodes = (
(301,677,o),
(301,677,o),
(301,677,o),
(301,677,q),
(368,677,o),
(493,595,o),
(571,446,o),
(571,350,qs),
(571,261,o),
(498,111,o),
(374,23,o),
(301,23,qs),
(227,23,o),
(102,111,o),
(29,261,o),
(29,350,qs),
(29,439,o),
(102,589,o),
(227,677,o),
(301,677,q),
(301,700,l),
(222,700,o),
(88,606,o),
(10,445,o),
(10,350,qs),
(10,255,o),
(88,94,o),
(222,0,o),
(301,0,qs),
(380,0,o),
(512,94,o),
(590,255,o),
(590,350,qs),
(590,453,o),
(506,612,o),
(372,700,o),
(301,700,q),
(301,700,o),
(301,700,o),
(301,700,o),
(301,700,o),
(301,700,q),
(301,700,o),
(301,700,o),
(301,700,q),
(301,700,o),
(301,700,o),
(301,700,o),
(301,700,q),
(301,700,o),
(301,700,o),
(301,681,o),
(301,700,q),
(301,700,o),
(301,700,o),
(301,677,o),
(301,677,q),
(301,677,o),
(301,677,o),
(301,677,o),
(301,677,q),
(301,677,o),
(301,677,o),
(301,677,q),
(301,677,o),
(301,677,o),
(301,677,q)
);
}
);
width = 600;
}
);
note = O;
unicode = (79,111);
},
{
glyphname = P;
lastChange = "2025-10-03 15:18:30 +0000";
layers = (
{
layerId = m01;
shapes = (
{
closed = 1;
nodes = (
(408,296,o),
(498,347,o),
(550,436,o),
(550,490,qs),
(550,545,o),
(498,640,o),
(389,700,o),
(335,700,qs),
(293,700,o),
(219,689,o),
(176,679,qs),
(153,674,o),
(108,666,o),
(92,666,qs),
(70,666,o),
(53,681,o),
(63,697,o),
(75,697,qs),
(87,697,o),
(96,712,o),
(87,727,o),
(75,727,qs),
(52,727,o),
(31,686,o),
(56,646,o),
(92,646,qs),
(120,646,o),
(166,653,o),
(196,661,qs),
(235,670,o),
(294,680,o),
(335,680,qs),
(383,680,o),
(478,627,o),
(530,540,o),
(530,490,qs),
(530,441,o),
(483,366,o),
(402,318,o),
(355,317,qs),
(278,315,o),
(219,393,o),
(219,437,qs),
(219,497,o),
(280,550,o),
(324,550,qs),
(366,550,o),
(414,500,o),
(414,467,qs),
(414,442,o),
(377,392,o),
(346,392,qs),
(317,392,o),
(295,415,o),
(309,440,o),
(325,440,qs),
(341,440,o),
(353,459,o),
(341,479,o),
(325,479,qs),
(294,479,o),
(265,425,o),
(299,372,o),
(346,372,qs),
(378,372,o),
(418,404,o),
(434,450,o),
(434,467,qs),
(434,501,o),
(383,568,o),
(324,569,qs),
(272,570,o),
(216,520,o),
(199,466,o),
(199,437,qs),
(199,410,o),
(220,352,o),
(281,297,o),
(354,297,qs)
);
},
{
closed = 1;
nodes = (
(77,-8,o),
(125,110,o),
(150,312,o),
(166,511,qs),
(170,580,o),
(178,659,q),
(158,659,l),
(146,521,ls),
(129,326,o),
(108,135,o),
(70,27,o),
(38,29,qs),
(26,30,o),
(14,14,o),
(23,-4,o),
(35,-5,qs)
);
}
);
width = 600;
},
{
layerId = "9DD8F9B5-8EC5-4AE3-8F26-4C0C48EFD34C";
shapes = (
{
closed = 1;
nodes = (
(411,297,o),
(498,347,o),
(550,436,o),
(550,490,qs),
(550,545,o),
(498,640,o),
(389.339,700,o),
(335.506,700,qs),
(293.637,700,o),
(219.866,689,o),
(177,679,qs),
(153,674,o),
(109,666,o),
(92,666,q),
(92,666,o),
(92,666,o),
(92,666,o),
(92,666,q),
(83,666,o),
(75,656,o),
(82.286,646,o),
(92,646,q),
(92,646,o),
(92,646,o),
(92,646,o),
(92,646,q),
(120,646,o),
(156,652,o),
(198,661,qs),
(235,670,o),
(294,680,o),
(335,680,qs),
(383,680,o),
(478,627,o),
(530,540,o),
(530,490,qs),
(530,441,o),
(483,366,o),
(402,317,o),
(355,317,q),
(355,317,o),
(355,317,o),
(355,317,q),
(355,317,o),
(355,317,o),
(355,317,q),
(355,317,o),
(355,317,o),
(355,317,q),
(355,317,o),
(355,317,o),
(355,317,q),
(314,319,o),
(234,323,o),
(170,325,o),
(150,325,qs),
(143.143,325,o),
(138,315,o),
(142,304,o),
(149,304,qs),
(169,304,o),
(233,302,o),
(313,299,o),
(354,297,q),
(354,297,o),
(354,297,o),
(354,297,o),
(354,297,q),
(354,297,o),
(354,297,o),
(354,297,q),
(354,297,o),
(354,297,o),
(354,297,o),
(354,297,q),
(354,297,o),
(358,297,o),
(376,297,o),
(354,297,qs)
);
},
{
closed = 1;
nodes = (
(132,47,o),
(139,175,o),
(154,378,o),
(166,515,qs),
(171,581,o),
(178,659,q),
(158,659,l),
(146,523,ls),
(134,385,o),
(117,182,o),
(109,50,o),
(109,17,qs),
(109,5,o),
(120,-2,o),
(132,6,o),
(132,15,qs)
);
}
);
width = 600;
}
);
note = P;
unicode = (80,112);
},
{
glyphname = Q;
lastChange = "2025-10-03 15:18:30 +0000";
layers = (
{
layerId = m01;
shapes = (
{
closed = 1;
nodes = (
(380,0,o),
(512,94,o),
(590,255,o),
(590,350,qs),
(590,489,o),
(406,605,o),
(214,520,o),
(209,404,qs),
(206,347,o),
(252,254,o),
(331,222,o),
(379,222,qs),
(426,222,o),
(483,286,o),
(483,322,qs),
(483,343,o),
(464,387,o),
(414,423,o),
(384,423,qs),
(337,423,o),
(275,356,o),
(289,227,o),
(352,93,o),
(404,46,q),
(424,57,l),
(390,81,o),
(333,174,o),
(301,276,o),
(301,312,qs),
(301,357,o),
(347,403,o),
(384,403,qs),
(412,403,o),
(462,359,o),
(462,322,qs),
(462,285,o),
(409,239,o),
(379,239,qs),
(296,239,o),
(225,338,o),
(229,404,qs),
(235,510,o),
(407,584,o),
(571,475,o),
(571,350,qs),
(571,261,o),
(498,111,o),
(374,23,o),
(301,23,qs),
(227,23,o),
(102,111,o),
(29,261,o),
(29,350,qs),
(29,439,o),
(102,589,o),
(227,677,o),
(301,677,q),
(301,700,l),
(222,700,o),
(88,606,o),
(10,445,o),
(10,350,qs),
(10,255,o),
(88,94,o),
(222,0,o),
(301,0,qs)
);
},
{
closed = 1;
nodes = (
(404,46,l),
(456,0,o),
(532,0,qs),
(546,0,o),
(557,12,o),
(546,24,o),
(532,24,qs),
(496,24,o),
(450,38,o),
(424,57,q)
);
}
);
width = 600;
},
{
layerId = "9DD8F9B5-8EC5-4AE3-8F26-4C0C48EFD34C";
shapes = (
{
closed = 1;
nodes = (
(380,0,o),
(512,86.503,o),
(590,234.663,o),
(590,322.086,qs),
(590,450,o),
(508,610,o),
(375,700,o),
(301,700,q),
(301,700,o),
(301,700,o),
(301,700,o),
(301,700,q),
(301,700,o),
(301,700,o),
(301,700,q),
(301,700,o),
(301,700,o),
(301,700,o),
(301,700,q),
(301,700,o),
(301,700,o),
(301,700,o),
(301,700,o),
(301,700,q),
(301,677,l),
(301,677,o),
(301,677,o),
(301,677,o),
(301,677,q),
(301,677,o),
(301,677,o),
(301,677,q),
(301,677,o),
(301,677,o),
(301,677,q),
(301,677,o),
(301,677,o),
(301,677,q),
(301,677,o),
(301,677,o),
(301,677,q),
(371,677,o),
(496,591,o),
(571,440,o),
(571,350,qs),
(571,261,o),
(498,111,o),
(374,23,o),
(301,23,qs),
(227,23,o),
(102,111,o),
(29,261,o),
(29,350,qs),
(29,439,o),
(102,589,o),
(227,677,o),
(301,677,q),
(301,700,l),
(222,700,o),
(88,606,o),
(10,445,o),
(10,350,qs),
(10,255,o),
(88,94,o),
(222,0,o),
(301,0,qs)
);
},
{
closed = 1;
nodes = (
(404,46,l),
(456,0,o),
(532,0,qs),
(546,0,o),
(557,12,o),
(546,24,o),
(532,24,qs),
(496,24,o),
(450,38,o),
(424,57,q)
);
}
);
width = 600;
}
);
note = Q;
unicode = (81,113);
},
{
glyphname = R;
lastChange = "2025-10-03 15:18:30 +0000";
layers = (
{
layerId = m01;
shapes = (
{
closed = 1;
nodes = (
(408,296,o),
(498,347,o),
(550,436,o),
(550,490,qs),
(550,545,o),
(498,640,o),
(389,700,o),
(335,700,qs),
(293,700,o),
(219,689,o),
(176,679,qs),
(117,666,o),
(92,666,qs),
(70,666,o),
(53,681,o),
(63,697,o),
(75,697,qs),
(87,697,o),
(96,712,o),
(87,727,o),
(75,727,qs),
(52,727,o),
(31,686,o),
(56,646,o),
(92,646,qs),
(120,646,o),
(166,653,o),
(196,661,qs),
(235,670,o),
(294,680,o),
(335,680,qs),
(383,680,o),
(478,627,o),
(530,540,o),
(530,490,qs),
(530,441,o),
(483,366,o),
(402,317,o),
(355,317,qs),
(269,317,o),
(219,396,o),
(219,437,qs),
(219,497,o),
(280,550,o),
(324,550,qs),
(366,550,o),
(414,500,o),
(414,467,qs),
(414,442,o),
(377,392,o),
(346,392,qs),
(317,392,o),
(295,415,o),
(309,440,o),
(325,440,qs),
(341,440,o),
(353,459,o),
(341,479,o),
(325,479,qs),
(294,479,o),
(265,425,o),
(299,372,o),
(346,372,qs),
(378,372,o),
(418,404,o),
(434,450,o),
(434,467,qs),
(434,501,o),
(383,568,o),
(324,569,qs),
(272,570,o),
(216,520,o),
(199,466,o),
(199,437,qs),
(199,418,o),
(213,366,o),
(226,344,qs),
(243,315,o),
(302,297,o),
(354,297,qs)
);
},
{
closed = 1;
nodes = (
(77,-8,o),
(125,110,o),
(150,312,o),
(166,511,qs),
(170,580,o),
(178,659,q),
(158,659,l),
(146,521,ls),
(129,326,o),
(108,135,o),
(70,27,o),
(38,29,qs),
(26,30,o),
(14,14,o),
(23,-4,o),
(35,-5,qs)
);
},
{
closed = 1;
nodes = (
(570,10,o),
(568,30,o),
(550,38,o),
(540,30,qs),
(533,25,o),
(518,24,o),
(509,27,qs),
(483,36,o),
(409,116,o),
(315,248,o),
(243,357,q),
(235,351,ls),
(227,345,o),
(226,344,q),
(335,181,o),
(463,18,o),
(510,0,qs),
(524,-6,o),
(549,-4,o),
(560,3,qs)
);
}
);
width = 600;
},
{
layerId = "9DD8F9B5-8EC5-4AE3-8F26-4C0C48EFD34C";
shapes = (
{
closed = 1;
nodes = (
(412,297,o),
(498,347,o),
(550,436,o),
(550,490,qs),
(550,545,o),
(498,640,o),
(389,700,o),
(335,700,qs),
(293,700,o),
(219,689,o),
(176,679,qs),
(117,666,o),
(92,666,q),
(97,666,o),
(103,666,o),
(99,666,o),
(92,666,qs),
(83,666,o),
(75,657,o),
(81,646,o),
(92,646,q),
(92,646,o),
(92,646,o),
(92,646,o),
(92,646,q),
(120,646,o),
(165,653,o),
(196,661,qs),
(235,670,o),
(294,680,o),
(335,680,qs),
(383,680,o),
(478,627,o),
(530,540,o),
(530,490,qs),
(530,441,o),
(483,366,o),
(402,317,o),
(355,317,q),
(355,317,o),
(355,317,o),
(355,317,q),
(355,317,o),
(355,317,o),
(355,317,q),
(355,317,o),
(355,317,o),
(355,317,q),
(355,317,o),
(355,317,o),
(355,317,q),
(317,319,o),
(241,323,o),
(174,325,o),
(149,325,qs),
(143,325,o),
(137,313,o),
(141,302,o),
(148,302,qs),
(175,302,o),
(243,300,o),
(318,298,o),
(354,297,q),
(354,297,o),
(354,297,o),
(354,297,o),
(354,297,q),
(354,297,o),
(354,297,o),
(354,297,q),
(354,297,o),
(354,297,o),
(354,297,o),
(354,297,q),
(354,297,o),
(357,297,o),
(361,297,qs),
(366,297,o),
(383,297,o),
(354,297,q)
);
},
{
closed = 1;
nodes = (
(130,50,o),
(138,180,o),
(154,379,o),
(166,515,qs),
(170,578,o),
(178,659,q),
(158,659,l),
(147,537,ls),
(135,393,o),
(117,180,o),
(107,43,o),
(107,13,qs),
(107,5,o),
(119,-2,o),
(130,5,o),
(130,13,qs)
);
},
{
closed = 1;
nodes = (
(518,-3,o),
(529,7,o),
(523,22,o),
(509,27,q),
(509,27,o),
(509,27,o),
(509,27,q),
(482,35,o),
(422,96,o),
(344,206,o),
(272,314,q),
(259,314,ls),
(253,314,o),
(246,314,q),
(353,155,o),
(463,19,o),
(510,0,q),
(510,0,o),
(514,0,o),
(510,0,q)
);
}
);
width = 600;
}
);
note = R;
unicode = (82,114);
},
{
glyphname = S;
lastChange = "2025-10-03 15:18:30 +0000";
layers = (
{
layerId = m01;
shapes = (
{
closed = 1;
nodes = (
(341,684,o),
(406,657,o),
(453,576,o),
(434,526,qs),
(425,501,o),
(374,479,o),
(348,491,qs),
(327,501,o),
(307,538,o),
(315,558,qs),
(322,574,o),
(353,588,o),
(373,580,qs),
(391,571,o),
(399,553,o),
(385,543,o),
(374,548,qs),
(364,553,o),
(351,544,o),
(353,528,o),
(363,523,qs),
(382,515,o),
(416,540,o),
(411,585,o),
(381,598,qs),
(351,611,o),
(305,585,o),
(298,565,qs),
(290,543,o),
(305,491,o),
(339,474,qs),
(380,454,o),
(440,489,o),
(453,518,qs),
(474,565,o),
(436,659,o),
(358,704,o),
(306,705,qs),
(254,705,o),
(162,652,o),
(108,567,o),
(108,521,qs),
(108,461,o),
(168,392,o),
(248,362,o),
(298,354,qs),
(337,348,o),
(425,311,o),
(487,227,o),
(487,166,qs),
(487,21,o),
(327,12,qs),
(258,8,o),
(161,46,o),
(131,85,qs),
(104,120,o),
(107,185,o),
(131,206,qs),
(153,223,o),
(205,220,o),
(223,199,qs),
(239,182,o),
(239,139,o),
(224,125,qs),
(211,114,o),
(179,116,o),
(164,129,qs),
(149,141,o),
(151,164,o),
(168,167,o),
(176,159,q),
(182,150,o),
(199,152,o),
(203,167,o),
(196,175,qs),
(182,191,o),
(142,183,o),
(128,137,o),
(149,116,qs),
(171,95,o),
(219,95,o),
(236,110,qs),
(253,126,o),
(263,184,o),
(239,211,qs),
(210,243,o),
(141,241,o),
(118,221,qs),
(107,212,o),
(84,172,o),
(90,105,o),
(114,74,qs),
(188,-20,o),
(331,-8,qs),
(432,0,o),
(503,90,o),
(507,165,qs),
(510,228,o),
(425,352,o),
(299,374,qs),
(223,387,o),
(148,438,o),
(129,489,o),
(129,521,qs),
(129,550,o),
(170,628,o),
(250,684,o),
(306,684,qs)
);
}
);
width = 600;
},
{
layerId = "9DD8F9B5-8EC5-4AE3-8F26-4C0C48EFD34C";
shapes = (
{
closed = 1;
nodes = (
(341,684,o),
(406,657,o),
(453,576,o),
(434,526,q),
(434,526,o),
(434,526,o),
(434,526,q),
(434,526,o),
(434,526,o),
(434,526,q),
(434,526,o),
(434,526,o),
(434,526,q),
(434,526,o),
(434,526,o),
(434,526,o),
(434,526,q),
(431,518,o),
(425,501,o),
(443,496,o),
(453,518,q),
(453,518,o),
(453,518,o),
(453,518,o),
(453,518,q),
(453,518,o),
(453,518,o),
(453,518,q),
(453,518,o),
(453,518,o),
(453,518,q),
(453,518,o),
(453,518,o),
(453,518,q),
(474,565,o),
(436,659,o),
(358,704,o),
(306,705,qs),
(254,705,o),
(162,652,o),
(108,567,o),
(108,521,qs),
(108,461,o),
(168,392,o),
(248,362,o),
(298,354,qs),
(337,348,o),
(425,311,o),
(487,227,o),
(487,166,qs),
(487,21,o),
(327,12,qs),
(258,8,o),
(161,46,o),
(131,85,qs),
(104,120,o),
(107,185,o),
(131,206,q),
(131,206,o),
(131,206,o),
(131,206,q),
(131,206,o),
(131,206,o),
(131,206,q),
(131,206,o),
(131,206,o),
(131,206,q),
(131,206,o),
(131,206,o),
(131,206,o),
(131,206,q),
(131,206,o),
(150,221,o),
(136,236,o),
(118,221,q),
(118,221,o),
(118,221,o),
(118,221,o),
(118,221,q),
(118,221,o),
(118,221,o),
(118,221,q),
(118,221,o),
(118,221,o),
(118,221,q),
(118,221,o),
(118,221,o),
(118,221,q),
(107,212,o),
(84,172,o),
(90,105,o),
(114,74,qs),
(188,-20,o),
(331,-8,qs),
(432,0,o),
(503,90,o),
(507,165,qs),
(510,228,o),
(425,352,o),
(299,374,qs),
(223,387,o),
(148,438,o),
(129,489,o),
(129,521,qs),
(129,550,o),
(170,628,o),
(250,684,o),
(306,684,qs)
);
}
);
width = 600;
}
);
note = S;
unicode = (83,115);
},
{
glyphname = T;
lastChange = "2025-10-03 15:18:30 +0000";
layers = (
{
layerId = m01;
shapes = (
{
closed = 1;
nodes = (
(295,611,o),
(295,560,o),
(295,507,qs),
(296,319,o),
(291,138,o),
(264,34,o),
(232,34,qs),
(219,34,o),
(209,17,o),
(219,0,o),
(232,0,qs),
(273,0,o),
(310,115,o),
(317,309,o),
(316,502,qs),
(315,540,o),
(315,620,o),
(315,662,q),
(295,662,l)
);
},
{
closed = 1;
nodes = (
(443,653,o),
(469,655,qs),
(504,659,o),
(542,683,o),
(544,704,qs),
(545,717,o),
(529,728,o),
(511,719,o),
(510,707,qs),
(509,694,o),
(487,680,o),
(468,677,qs),
(452,674,o),
(430,674,qs),
(377,673,o),
(279,682,o),
(210,691,qs),
(147,699,ls),
(100,703,o),
(62,654,o),
(85,597,o),
(116,594,qs),
(132,593,o),
(146,611,o),
(136,632,o),
(120,633,qs),
(104,634,o),
(92,661,o),
(116,682,o),
(145,679,qs),
(170,676,o),
(194,673,qs),
(344,653,o),
(428,653,qs)
);
}
);
width = 600;
},
{
layerId = "9DD8F9B5-8EC5-4AE3-8F26-4C0C48EFD34C";
shapes = (
{
closed = 1;
nodes = (
(295,476,o),
(283,230,o),
(273,110,qs),
(271,90,o),
(268,56,o),
(267,29,o),
(267,18,qs),
(267,7,o),
(280,-2,o),
(294,7,o),
(294,18,qs),
(294,31,o),
(295,62,o),
(298,99,o),
(299,121,qs),
(306,242,o),
(315,480,o),
(315,662,q),
(295,662,l)
);
},
{
closed = 1;
nodes = (
(457,653,o),
(483,657,qs),
(499,660,o),
(496,659,o),
(483,657,q),
(493,658,o),
(498,670,o),
(489,680,o),
(482,679,q),
(489,680,o),
(491,680,o),
(482,679,qs),
(455,674,o),
(430,674,qs),
(376,673,o),
(253,685,o),
(184,695,qs),
(130,701,l),
(130,701,o),
(130,701,o),
(130,701,o),
(130,701,q),
(122,702,o),
(113,693,o),
(118,682,o),
(128,681,q),
(128,681,o),
(128,681,o),
(128,681,o),
(128,681,q),
(154,678,o),
(180,675,qs),
(339,653,o),
(428,653,qs)
);
}
);
width = 600;
}
);
note = T;
unicode = (84,116);
},
{
glyphname = U;
lastChange = "2025-10-03 15:18:30 +0000";
layers = (
{
layerId = m01;
shapes = (
{
closed = 1;
nodes = (
(582,475,o),
(562,617,o),
(510,692,o),
(459,701,qs),
(401,712,o),
(330,633,o),
(329,518,o),
(364,483,qs),
(376,471,o),
(417,453,o),
(468,459,o),
(491,481,qs),
(524,515,o),
(511,575,o),
(452,594,o),
(430,572,qs),
(419,561,o),
(424,538,o),
(447,533,o),
(458,544,qs),
(469,555,o),
(496,548,o),
(497,516,o),
(477,495,qs),
(456,474,o),
(396,480,o),
(378,497,qs),
(347,528,o),
(348,626,o),
(407,692,o),
(455,683,qs),
(503,673,o),
(549,589,o),
(561,460,o),
(556,349,qs),
(553,276,o),
(505,125,o),
(388,20,o),
(293,20,qs),
(216,20,o),
(98,107,o),
(33,258,o),
(33,350,qs),
(33,450,o),
(42,572,o),
(58,612,qs),
(83,673,o),
(139,684,qs),
(187,693,o),
(246,627,o),
(247,529,o),
(216,498,qs),
(198,481,o),
(138,475,o),
(117,496,qs),
(97,517,o),
(98,549,o),
(125,556,o),
(136,545,qs),
(147,534,o),
(170,539,o),
(175,562,o),
(164,573,qs),
(142,595,o),
(83,576,o),
(70,516,o),
(103,482,qs),
(126,460,o),
(177,454,o),
(218,472,o),
(230,484,qs),
(265,519,o),
(264,634,o),
(193,713,o),
(135,702,qs),
(78,692,o),
(52,646,qs),
(30,608,o),
(12,471,o),
(13,350,qs),
(14,238,o),
(97,79,o),
(226,0,o),
(293,0,qs),
(400,0,o),
(525,113,o),
(572,271,o),
(576,349,qs)
);
}
);
width = 600;
},
{
layerId = "9DD8F9B5-8EC5-4AE3-8F26-4C0C48EFD34C";
shapes = (
{
closed = 1;
nodes = (
(576,437,o),
(576,525,o),
(576,613,o),
(576,701,q),
(576,701,o),
(576,701,o),
(576,700,o),
(576,700,q),
(576,700,o),
(576,700,o),
(576,700,o),
(576,700,q),
(576,700,o),
(576,700,o),
(576,700,o),
(576,700,q),
(576,707,o),
(567,712,o),
(557,707,o),
(557,700,q),
(557,700,o),
(557,700,o),
(557,700,o),
(557,700,q),
(557,700,o),
(557,700,o),
(557,700,q),
(557,722,o),
(557,745,o),
(557,729,o),
(557,700,qs),
(557,612,o),
(557,525,o),
(556,437,o),
(556,349,qs),
(556,276,o),
(507,125,o),
(390,20,o),
(295,20,qs),
(218,20,o),
(100,107,o),
(35,258,o),
(35,350,qs),
(35,431,o),
(36,512,o),
(36,596,qs),
(37,636,o),
(37,700,qs),
(37,729,o),
(37,745,o),
(37,722,o),
(37,700,q),
(37,700,o),
(37,700,o),
(37,700,q),
(37,700,o),
(37,700,o),
(37,700,o),
(37,700,q),
(37,707,o),
(28,712,o),
(19,707,o),
(19,700,q),
(19,700,o),
(19,700,o),
(19,700,o),
(19,700,q),
(19,700,o),
(19,700,o),
(19,700,o),
(19,700,q),
(19,722,o),
(19,747,o),
(19,729,o),
(19,700,qs),
(19,659,o),
(18,617,qs),
(17,575,o),
(15,448,o),
(15,350,qs),
(15,238,o),
(99,79,o),
(228,0,o),
(295,0,qs),
(402,0,o),
(527,113,o),
(576,271,o),
(576,349,qs)
);
}
);
width = 600;
}
);
note = U;
unicode = (85,117);
},
{
glyphname = V;
lastChange = "2025-10-03 15:18:30 +0000";
layers = (
{
layerId = m01;
shapes = (
{
closed = 1;
nodes = (
(528,577,ls),
(548,641,o),
(624,688,o),
(666,677,qs),
(699,668,o),
(731,619,o),
(726,591,qs),
(721,561,o),
(686,542,o),
(658,560,o),
(663,575,qs),
(670,591,o),
(656,608,o),
(632,602,o),
(626,587,qs),
(616,558,o),
(670,518,o),
(736,541,o),
(745,591,qs),
(753,630,o),
(705,687,o),
(670,696,qs),
(646,703,o),
(582,692,o),
(523,636,o),
(508,581,q),
(333,25,l),
(158,581,l),
(143,636,o),
(84,692,o),
(20,703,o),
(-4,696,qs),
(-39,687,o),
(-87,630,o),
(-80,590,qs),
(-71,541,o),
(-4,518,o),
(50,558,o),
(40,587,qs),
(34,602,o),
(10,608,o),
(-4,591,o),
(3,575,qs),
(8,560,o),
(-20,542,o),
(-55,561,o),
(-60,591,qs),
(-65,619,o),
(-33,668,o),
(0,677,qs),
(42,688,o),
(118,640,o),
(138,576,qs),
(323,0,l),
(342,0,l)
);
}
);
width = 600;
},
{
layerId = "9DD8F9B5-8EC5-4AE3-8F26-4C0C48EFD34C";
shapes = (
{
closed = 1;
nodes = (
(529,577,ls),
(549,641,o),
(625,688,o),
(667,677,qs),
(684,672,o),
(681,673,o),
(667,677,q),
(667,677,o),
(667,677,o),
(667,677,o),
(667,677,q),
(671,676,o),
(679,683,o),
(678,693,o),
(671,696,q),
(671,696,o),
(671,696,o),
(671,696,o),
(671,696,q),
(683,693,o),
(686,692,o),
(671,696,qs),
(647,703,o),
(583,692,o),
(524,636,o),
(509,581,q),
(334,25,l),
(159,581,l),
(144,636,o),
(85,692,o),
(21,703,o),
(-3,696,qs),
(-18,692,o),
(-15,693,o),
(-3,696,q),
(-3,696,o),
(-3,696,o),
(-3,696,o),
(-3,696,q),
(-10,694,o),
(-12,684,o),
(-5,676,o),
(1,677,q),
(1,677,o),
(1,677,o),
(1,677,o),
(1,677,q),
(-13,673,o),
(-16,672,o),
(1,677,qs),
(43,688,o),
(119,640,o),
(139,576,qs),
(324,0,l),
(343,0,l)
);
}
);
width = 600;
}
);
note = V;
unicode = (86,118);
},
{
glyphname = W;
lastChange = "2025-10-03 15:18:30 +0000";
layers = (
{
layerId = m01;
shapes = (
{
closed = 1;
nodes = (
(441,20,o),
(400,116,o),
(402,208,o),
(427,200,qs),
(454,191,o),
(411,102,o),
(318,20,o),
(284,20,qs),
(225,20,o),
(178,365,o),
(226,696,o),
(285,677,qs),
(308,670,o),
(284,609,o),
(221,537,o),
(193,517,qs),
(166,497,o),
(78,498,o),
(53,512,qs),
(39,520,o),
(22,546,o),
(19,563,qs),
(14,586,o),
(44,638,o),
(74,643,qs),
(102,649,o),
(127,630,o),
(119,603,o),
(103,599,qs),
(87,597,o),
(79,576,o),
(94,559,o),
(109,561,qs),
(140,566,o),
(159,625,o),
(117,670,o),
(70,663,qs),
(24,653,o),
(-5,587,o),
(0,559,qs),
(2,545,o),
(20,511,o),
(36,500,qs),
(74,473,o),
(187,479,o),
(230,522,qs),
(301,594,o),
(328,684,o),
(293,696,qs),
(216,723,o),
(153,374,o),
(210,0,o),
(282,0,qs),
(325,0,o),
(434,99,o),
(475,206,o),
(433,219,qs),
(390,233,o),
(376,122,o),
(428,0,o),
(468,0,qs),
(489,0,o),
(544,32,o),
(566,66,qs),
(581,89,o),
(613,172,o),
(650,275,qs),
(694,398,o),
(757,556,o),
(829,668,o),
(862,666,qs),
(883,665,o),
(905,634,o),
(903,613,qs),
(902,601,o),
(915,590,o),
(929,599,o),
(930,612,qs),
(933,644,o),
(895,684,o),
(864,686,qs),
(822,690,o),
(741,573,o),
(674,408,o),
(631,281,qs),
(596,182,o),
(562,93,o),
(546,72,qs),
(526,45,o),
(493,20,o),
(470,20,qs)
);
}
);
width = 600;
},
{
layerId = "9DD8F9B5-8EC5-4AE3-8F26-4C0C48EFD34C";
shapes = (
{
closed = 1;
nodes = (
(442,20,o),
(401,116,o),
(403,208,o),
(428,200,qs),
(455,191,o),
(412,102,o),
(319,20,o),
(285,20,qs),
(226,20,o),
(179,365,o),
(227,696,o),
(286,677,qs),
(309,670,o),
(285,609,o),
(222,537,o),
(194,517,qs),
(167,497,o),
(79,498,o),
(54,512,q),
(54,512,o),
(54,512,o),
(54,512,q),
(54,512,o),
(54,512,o),
(54,512,q),
(54,512,o),
(54,512,o),
(54,512,o),
(54,512,q),
(40,521,o),
(27,522,o),
(24,509,o),
(37,500,q),
(37,500,o),
(37,500,o),
(37,500,o),
(37,500,q),
(37,500,o),
(37,500,o),
(37,500,q),
(37,500,o),
(37,500,o),
(37,500,q),
(75,473,o),
(188,479,o),
(231,522,qs),
(302,594,o),
(329,684,o),
(294,696,qs),
(217,723,o),
(154,374,o),
(211,0,o),
(283,0,qs),
(326,0,o),
(435,99,o),
(476,206,o),
(434,219,qs),
(391,233,o),
(377,122,o),
(429,0,o),
(469,0,qs),
(490,0,o),
(545,32,o),
(567,66,qs),
(582,89,o),
(614,172,o),
(651,275,qs),
(695,398,o),
(758,556,o),
(830,668,o),
(863,666,q),
(863,666,o),
(863,666,o),
(863,666,q),
(876,665,o),
(886,674,o),
(876,685,o),
(865,686,q),
(865,686,o),
(865,686,o),
(865,686,q),
(823,690,o),
(742,573,o),
(675,408,o),
(632,281,qs),
(597,182,o),
(563,93,o),
(547,71.562,qs),
(527,44,o),
(495,20,o),
(471,20,qs)
);
}
);
width = 600;
}
);
note = W;
unicode = (87,119);
},
{
glyphname = X;
lastChange = "2025-10-03 15:18:30 +0000";
layers = (
{
layerId = m01;
shapes = (
{
closed = 1;
nodes = (
(447,74,o),
(489,20,o),
(517,20,qs),
(545,20,o),
(567,61,o),
(549,89,o),
(534,84,qs),
(518,77,o),
(501,91,o),
(507,116,o),
(522,121,qs),
(552,131,o),
(591,77,o),
(563,0,o),
(517,0,qs),
(487,0,o),
(436,47,o),
(292,326,q),
(148,47,o),
(97,0,o),
(67,0,qs),
(21,0,o),
(-7,77,o),
(32,131,o),
(62,121,qs),
(77,116,o),
(83,91,o),
(66,77,o),
(50,84,qs),
(35,89,o),
(17,61,o),
(39,20,o),
(67,20,qs),
(95,20,o),
(137,74,o),
(280,347,q),
(137,619,o),
(95,673,o),
(67,673,qs),
(39,673,o),
(17,632,o),
(35,604,o),
(50,609,qs),
(66,616,o),
(83,602,o),
(77,577,o),
(62,572,qs),
(32,562,o),
(-7,616,o),
(18,692,o),
(67,693,qs),
(97,694,o),
(148,646,o),
(292,367,q),
(436,646,o),
(487,693,o),
(517,693,qs),
(563,693,o),
(591,616,o),
(552,562,o),
(522,572,qs),
(507,577,o),
(501,602,o),
(518,616,o),
(534,609,qs),
(549,604,o),
(567,632,o),
(545,673,o),
(517,673,qs),
(489,673,o),
(447,619,o),
(304,347,q)
);
}
);
width = 600;
},
{
layerId = "9DD8F9B5-8EC5-4AE3-8F26-4C0C48EFD34C";
shapes = (
{
closed = 1;
nodes = (
(447,74,o),
(489,20,o),
(517,20,q),
(517,20,o),
(517,20,o),
(517,20,o),
(517,20,q),
(543,20,o),
(546,5,o),
(528,0,o),
(517,0,q),
(517,0,o),
(517,0,o),
(517,0,o),
(517,0,q),
(487,0,o),
(436,47,o),
(292,326,q),
(148,47,o),
(97,0,o),
(67,0,q),
(67,0,o),
(67,0,o),
(67,0,o),
(67,0,q),
(56,0,o),
(38,5,o),
(41,20,o),
(67,20,q),
(67,20,o),
(67,20,o),
(67,20,o),
(67,20,q),
(95,20,o),
(137,74,o),
(280,354,q),
(137,626,o),
(95,680,o),
(67,680,q),
(67,680,o),
(67,680,o),
(67,680,o),
(67,680,q),
(41,680,o),
(38,695,o),
(56,700,o),
(67,700,q),
(67,700,o),
(67,700,o),
(67,700,o),
(67,700,q),
(97,701,o),
(148,653,o),
(292,374,q),
(436,653,o),
(487,700,o),
(517,700,q),
(517,700,o),
(517,700,o),
(517,700,o),
(517,700,q),
(528,700,o),
(546,695,o),
(543,680,o),
(517,680,q),
(517,680,o),
(517,680,o),
(517,680,o),
(517,680,q),
(489,680,o),
(447,626,o),
(304,354,q)
);
}
);
width = 600;
}
);
note = X;
unicode = (88,120);
},
{
glyphname = Y;
lastChange = "2025-10-03 15:18:30 +0000";
layers = (
{
layerId = m01;
shapes = (
{
closed = 1;
nodes = (
(291,194,o),
(283,82,o),
(269,57,qs),
(255,34,o),
(226,34,qs),
(213,34,o),
(203,17,o),
(213,0,o),
(226,0,qs),
(268,0,o),
(285,34,qs),
(302,65,o),
(311,190,o),
(310,373,q),
(380,548,o),
(430,636,q),
(453,670,o),
(519,686,o),
(546,667,qs),
(566,653,o),
(583,603,o),
(569,572,qs),
(559,548,o),
(518,543,o),
(505,568,o),
(513,581,qs),
(522,595,o),
(513,615,o),
(491,617,o),
(482,604,qs),
(463,580,o),
(491,524,o),
(570,523,o),
(587,564,qs),
(604,604,o),
(581,667,o),
(557,684,qs),
(541,694,o),
(492,703,o),
(437,681,o),
(414,648,qs),
(365,576,o),
(299,404,q),
(221,589,o),
(186,649,q),
(163,682,o),
(108,703,o),
(59,695,o),
(43,684,qs),
(19,667,o),
(-4,605,o),
(13,564,qs),
(30,524,o),
(109,525,o),
(137,580,o),
(118,605,qs),
(109,618,o),
(87,616,o),
(78,595,o),
(87,582,qs),
(95,568,o),
(82,543,o),
(41,549,o),
(31,573,qs),
(17,604,o),
(34,653,o),
(54,667,qs),
(81,687,o),
(147,670,o),
(170,636,q),
(218,548,o),
(288,373,q)
);
}
);
width = 600;
},
{
layerId = "9DD8F9B5-8EC5-4AE3-8F26-4C0C48EFD34C";
shapes = (
{
closed = 1;
nodes = (
(291,189,o),
(283,82,o),
(269,57,qs),
(255,34,o),
(226,34,qs),
(213,34,o),
(203,17,o),
(213,0,o),
(226,0,qs),
(268,0,o),
(285,34,qs),
(302,65,o),
(311,185,o),
(310,368,q),
(380,543,o),
(430,636,q),
(453,670,o),
(518,686,o),
(546,667,q),
(546,667,o),
(546,667,o),
(546,667,q),
(546,667,o),
(546,667,o),
(546,667,o),
(546,667,q),
(551,663,o),
(567,663,o),
(568,677,o),
(557,684,q),
(557,684,o),
(557,684,o),
(557,684,o),
(557,684,q),
(557,684,o),
(557,684,o),
(557,684,q),
(541,694,o),
(492,703,o),
(437,681,o),
(414,648,qs),
(365,571,o),
(299,399,q),
(221,584,o),
(186,649,q),
(163,682,o),
(108,703,o),
(59,695,o),
(43,684,q),
(43,684,o),
(43,684,o),
(43,684,q),
(43,684,o),
(43,684,o),
(43,684,o),
(43,684,q),
(32,677,o),
(33,663,o),
(47,661,o),
(54,667,q),
(54,667,o),
(54,667,o),
(54,667,o),
(54,667,q),
(54,667,o),
(54,667,o),
(54,667,q),
(81,687,o),
(147,670,o),
(170,636,q),
(218,543,o),
(288,368,q)
);
}
);
width = 600;
}
);
note = Y;
unicode = (89,121);
},
{
glyphname = Z;
lastChange = "2025-10-03 15:18:30 +0000";
layers = (
{
layerId = m01;
shapes = (
{
closed = 1;
nodes = (
(514,681,l),
(514,700,l),
(230,700,ls),
(135,700,o),
(54,655,o),
(42,619,qs),
(29,585,o),
(50,513,o),
(87,496,qs),
(132,476,o),
(188,517,o),
(187,585,o),
(158,593,qs),
(142,597,o),
(123,581,o),
(130,559,o),
(146,556,qs),
(161,552,o),
(160,518,o),
(125,501,o),
(97,514,qs),
(71,525,o),
(49,579,o),
(61,612,qs),
(74,649,o),
(155,680,o),
(230,680,qs),
(490,680,l),
(68,19,l),
(68,0,l),
(352,0,ls),
(447,0,o),
(528,45,o),
(540,81,qs),
(553,115,o),
(532,187,o),
(495,204,qs),
(450,224,o),
(394,183,o),
(395,115,o),
(424,107,qs),
(440,103,o),
(459,119,o),
(452,141,o),
(436,144,qs),
(421,148,o),
(422,182,o),
(457,199,o),
(485,186,qs),
(511,175,o),
(533,121,o),
(521,88,qs),
(508,51,o),
(427,20,o),
(352,20,qs),
(92,20,l)
);
}
);
width = 600;
},
{
layerId = "9DD8F9B5-8EC5-4AE3-8F26-4C0C48EFD34C";
shapes = (
{
closed = 1;
nodes = (
(514,681,l),
(514,700,l),
(230,700,ls),
(135,700,o),
(54,655,o),
(42,619,q),
(42,619,o),
(42,619,o),
(42,619,q),
(42,619,o),
(42,619,o),
(42,619,o),
(42,619,q),
(33,592,o),
(54,587,o),
(61,612,o),
(61,612,q),
(61,612,o),
(61,612,o),
(61,612,o),
(61,612,q),
(61,612,o),
(61,612,o),
(61,612,q),
(74,649,o),
(155,680,o),
(230,680,qs),
(490,680,l),
(68,19,l),
(68,0,l),
(352,0,ls),
(447,0,o),
(528,45,o),
(540,81,q),
(540,81,o),
(540,81,o),
(540,81,q),
(540,81,o),
(540,81,o),
(540,81,o),
(540,81,q),
(548,103,o),
(528,109,o),
(521,88,o),
(521,88,q),
(521,88,o),
(521,88,o),
(521,88,o),
(521,88,q),
(521,88,o),
(521,88,o),
(521,88,q),
(508,51,o),
(427,20,o),
(352,20,qs),
(92,20,l)
);
}
);
width = 600;
}
);
note = Z;
unicode = (90,122);
},
{
glyphname = zero;
layers = (
{
layerId = m01;
shapes = (
{
closed = 1;
nodes = (
(279,600,o),
(251,631,o),
(251,650,qs),
(251,670,o),
(281,700,o),
(301,700,qs),
(369,700,o),
(490,613,o),
(563,453,o),
(563,350,qs),
(563,255,o),
(493,94,o),
(372,0,o),
(301,0,qs),
(229,0,o),
(108,94,o),
(38,255,o),
(38,350,qs),
(38,445,o),
(108,606,o),
(229,700,o),
(301,700,q),
(301,680,l),
(234,680,o),
(122,591,o),
(58,439,o),
(58,350,qs),
(58,261,o),
(122,109,o),
(234,20,o),
(301,20,qs),
(367,20,o),
(478,110,o),
(543,261,o),
(543,350,qs),
(543,446,o),
(474,597,o),
(362,680,o),
(301,680,qs),
(300,680,ls),
(288,680,o),
(271,669,o),
(271,650,qs),
(271,635,o),
(289,620,o),
(301,620,qs),
(309,620,o),
(315,610,o),
(309,600,o),
(301,600,qs)
);
}
);
width = 600;
},
{
layerId = "9DD8F9B5-8EC5-4AE3-8F26-4C0C48EFD34C";
shapes = (
{
closed = 1;
nodes = (
(294,700,o),
(292,700,o),
(301,700,q),
(293,700,o),
(291,700,o),
(301,700,qs),
(369,700,o),
(490,613,o),
(563,453,o),
(563,350,qs),
(563,255,o),
(493,94,o),
(372,0,o),
(301,0,qs),
(229,0,o),
(108,94,o),
(38,255,o),
(38,350,qs),
(38,445,o),
(108,606,o),
(229,700,o),
(301,700,q),
(301,680,l),
(234,680,o),
(122,591,o),
(58,439,o),
(58,350,qs),
(58,261,o),
(122,109,o),
(234,20,o),
(301,20,qs),
(367,20,o),
(478,110,o),
(543,261,o),
(543,350,qs),
(543,446,o),
(474,597,o),
(362,680,o),
(301,680,qs),
(300,680,l),
(300,680,o),
(301,680,o),
(301,680,q),
(297,680,o),
(296,680,o),
(301,680,q),
(301,685,o),
(301,690,o),
(301,695,o),
(301,700,q)
);
}
);
width = 600;
}
);
note = zero;
unicode = 48;
},
{
glyphname = one;
layers = (
{
layerId = m01;
shapes = (
{
closed = 1;
nodes = (
(41,20,l),
(231,20,l),
(231,526,l),
(231,558,ls),
(230,614,o),
(235,669,o),
(254,700,o),
(277,700,qs),
(313,700,o),
(298,622,o),
(186,553,o),
(91,553,qs),
(80,553,o),
(71,563,o),
(80,573,o),
(91,573,qs),
(168,573,o),
(265,622,o),
(296,680,o),
(277,680,qs),
(258,680,o),
(250,636,o),
(251,579,qs),
(251,526,ls),
(250,450,o),
(251,192,o),
(251,78,qs),
(251,20,l),
(416,20,ls),
(444,20,o),
(466,61,o),
(448,89,o),
(433,84,qs),
(417,77,o),
(400,91,o),
(406,116,o),
(421,121,qs),
(451,131,o),
(490,77,o),
(462,0,o),
(416,0,qs),
(41,0,l)
);
}
);
width = 600;
},
{
layerId = "9DD8F9B5-8EC5-4AE3-8F26-4C0C48EFD34C";
shapes = (
{
closed = 1;
nodes = (
(41,20,l),
(231,20,l),
(231,526,l),
(231,558,ls),
(230,614,o),
(235,669,o),
(254,700,o),
(277,700,qs),
(313,700,o),
(298,622,o),
(186,553,o),
(91,553,qs),
(80,553,o),
(71,563,o),
(80,573,o),
(91,573,qs),
(168,573,o),
(265,622,o),
(296,680,o),
(277,680,qs),
(258,680,o),
(250,636,o),
(251,579,qs),
(251,526,ls),
(250,450,o),
(251,192,o),
(251,78,qs),
(251,20,l),
(416,20,l),
(416,20,o),
(416,20,o),
(416,32,o),
(416,27,qs),
(416,20,o),
(416,20,o),
(416,0,o),
(415.667,0,qs),
(415,0,o),
(416,0,o),
(416,0,o),
(416,0,q),
(41,0,l)
);
}
);
width = 600;
}
);
note = one;
unicode = 49;
},
{
glyphname = two;
layers = (
{
layerId = m01;
shapes = (
{
closed = 1;
nodes = (
(464,0,o),
(477,5,qs),
(512,16,o),
(556,69,o),
(551,110,qs),
(545,162,o),
(472,187,o),
(421,143,o),
(431,114,qs),
(437,99,o),
(461,93,o),
(475,110,o),
(468,126,qs),
(463,141,o),
(491,159,o),
(526,140,o),
(531,110,qs),
(536,82,o),
(504,33,o),
(471,24,qs),
(458,20,o),
(439,20,qs),
(174,20,ls),
(172,20,o),
(191,39,qs),
(291,136,o),
(380,262,qs),
(420,319,o),
(474,472,o),
(474,538,qs),
(474,581,o),
(430,656,o),
(356,700,o),
(312,700,qs),
(268,700,o),
(193,657,o),
(149,582,o),
(149,538,qs),
(149,512,o),
(183,479,o),
(208,479,qs),
(217,479,o),
(225,489,o),
(217,499,o),
(208,499,qs),
(192,499,o),
(169,521,o),
(169,538,qs),
(169,578,o),
(208,643,o),
(274,680,o),
(312,680,qs),
(346,680,o),
(412,645,o),
(454,580,o),
(454,538,qs),
(454,489,o),
(419,353,o),
(363,273,qs),
(253,114,o),
(129,20,q),
(129,0,l),
(439,0,ls)
);
}
);
width = 600;
},
{
layerId = "9DD8F9B5-8EC5-4AE3-8F26-4C0C48EFD34C";
shapes = (
{
closed = 1;
nodes = (
(464,0,o),
(477,5,q),
(477,5,o),
(477,5,o),
(477,5,q),
(477,5,o),
(477,5,o),
(477,5,o),
(477,5,q),
(493,11,o),
(490,28,o),
(477,26,o),
(471,24,q),
(471,24,o),
(471,24,o),
(471,24,o),
(471,24,q),
(471,24,o),
(471,24,o),
(471,24,q),
(458,20,o),
(439,20,qs),
(174,20,ls),
(172,20,o),
(191,39,qs),
(291,136,o),
(380,262,qs),
(420,319,o),
(474,472,o),
(474,538,qs),
(474,581,o),
(430,656,o),
(356,700,o),
(312,700,qs),
(268,700,o),
(193,657,o),
(149,582,o),
(149,538,q),
(149,538,o),
(149,538,o),
(149,538,q),
(149,530,o),
(159,523,o),
(169,529,o),
(169,538,q),
(169,538,o),
(169,538,o),
(169,538,q),
(169,578,o),
(208,643,o),
(274,680,o),
(312,680,qs),
(346,680,o),
(412,645,o),
(454,580,o),
(454,538,qs),
(454,489,o),
(419,353,o),
(363,273,qs),
(253,114,o),
(129,20,q),
(129,0,l),
(439,0,ls)
);
}
);
width = 600;
}
);
note = two;
unicode = 50;
},
{
glyphname = three;
layers = (
{
layerId = m01;
shapes = (
{
closed = 1;
nodes = (
(205,21,o),
(135,73,o),
(101,146,o),
(101,176,qs),
(100,212,o),
(138,256,o),
(166,258,qs),
(197,262,o),
(224,235,o),
(216,203,o),
(200,203,qs),
(184,205,o),
(170,186,o),
(184,165,o),
(200,164,qs),
(229,163,o),
(252,227,o),
(211,284,o),
(162,278,qs),
(121,274,o),
(80,212,o),
(81,176,qs),
(81,128,o),
(128,48,o),
(208,1,o),
(256,1,qs),
(303,1,o),
(384,48,o),
(431,128,o),
(431,176,qs),
(431,263,o),
(329,348,o),
(256,351,q),
(305,351,o),
(385,397,o),
(431,477,o),
(431,525,qs),
(431,573,o),
(384,653,o),
(304,700,o),
(256,700,qs),
(208,700,o),
(128,653,o),
(81,573,o),
(81,525,qs),
(81,489,o),
(121,427,o),
(162,423,qs),
(211,417,o),
(252,474,o),
(229,538,o),
(200,537,qs),
(184,536,o),
(170,515,o),
(184,496,o),
(200,498,qs),
(216,498,o),
(224,466,o),
(197,439,o),
(166,443,qs),
(138,445,o),
(100,489,o),
(101,525,qs),
(101,555,o),
(135,628,o),
(205,680,o),
(256,680,qs),
(307,680,o),
(377,625,o),
(411,552,o),
(411,525,qs),
(411,479,o),
(363,403,o),
(281,360,o),
(234,360,q),
(234,340,l),
(270,340,o),
(352,311,o),
(411,237,o),
(411,176,qs),
(411,121,o),
(354,52,o),
(280,21,o),
(256,21,qs)
);
}
);
width = 600;
},
{
layerId = "9DD8F9B5-8EC5-4AE3-8F26-4C0C48EFD34C";
shapes = (
{
closed = 1;
nodes = (
(205,21,o),
(135,73,o),
(101,146,o),
(101,176,q),
(101,176,o),
(101,176,o),
(101,176,q),
(101,176,o),
(101,176,o),
(101,176,o),
(101,176,q),
(101,176,o),
(101,201,o),
(81,200,o),
(81,176,q),
(81,176,o),
(81,176,o),
(81,176,o),
(81,176,q),
(81,176,o),
(81,176,o),
(81,176,q),
(81,128,o),
(128,48,o),
(208,1,o),
(256,1,qs),
(303,1,o),
(384,48,o),
(431,128,o),
(431,176,qs),
(431,263,o),
(329,348,o),
(256,351,q),
(305,351,o),
(385,397,o),
(431,477,o),
(431,525,qs),
(431,573,o),
(384,653,o),
(304,700,o),
(256,700,qs),
(208,700,o),
(128,653,o),
(81,573,o),
(81,525,q),
(81,525,o),
(81,525,o),
(81,525,q),
(81,525,o),
(81,525,o),
(81,525,o),
(81,525,q),
(81,511,o),
(90,502,o),
(101,509,o),
(101,525,q),
(101,525,o),
(101,525,o),
(101,525,o),
(101,525,q),
(101,525,o),
(101,525,o),
(101,525,q),
(101,555,o),
(135,628,o),
(205,680,o),
(256,680,qs),
(307,680,o),
(377,625,o),
(411,552,o),
(411,525,qs),
(411,479,o),
(363,403,o),
(281,360,o),
(234,360,q),
(234,340,l),
(270,340,o),
(352,311,o),
(411,237,o),
(411,176,qs),
(411,121,o),
(354,52,o),
(280,21,o),
(256,21,qs)
);
}
);
width = 600;
}
);
note = three;
unicode = 51;
},
{
glyphname = four;
layers = (
{
layerId = m01;
shapes = (
{
closed = 1;
nodes = (
(419,671,o),
(390,700,o),
(370,700,qs),
(352,700,o),
(294,644,o),
(182,494,o),
(81,348,q),
(81,327,l),
(420,327,ls),
(432,327,o),
(447,312,o),
(447,299,qs),
(447,290,o),
(457,282,o),
(468,289,o),
(468,298,qs),
(468,318,o),
(439,347,o),
(419,347,qs),
(105,347,l),
(137,392,ls),
(336,680,o),
(370,680,qs),
(383,680,o),
(398,665,o),
(398,652,qs),
(398,643,o),
(408,635,o),
(419,642,o),
(419,651,qs)
);
},
{
closed = 1;
nodes = (
(350,0,l),
(370,0,l),
(370,680,l),
(350,680,l)
);
}
);
width = 600;
},
{
layerId = "9DD8F9B5-8EC5-4AE3-8F26-4C0C48EFD34C";
shapes = (
{
closed = 1;
nodes = (
(378,700,o),
(380,700,o),
(370,700,qs),
(352,700,o),
(294,644,o),
(182,494,o),
(81,348,q),
(81,327,l),
(420,327,l),
(420,327,o),
(420,327,o),
(420,327,q),
(429,327,o),
(436,337,o),
(428,347,o),
(419,347,q),
(419,347,o),
(419,347,o),
(419,347,q),
(105,347,l),
(137,392,ls),
(336,680,o),
(370,680,q),
(370,680,o),
(370,680,o),
(370,680,q),
(370,685,o),
(370,690,o),
(370,695,o),
(370,700,q)
);
},
{
closed = 1;
nodes = (
(350,0,l),
(370,0,l),
(370,680,l),
(350,680,l)
);
}
);
width = 600;
}
);
note = four;
unicode = 52;
},
{
glyphname = five;
layers = (
{
layerId = m01;
shapes = (
{
closed = 1;
nodes = (
(166,403,l),
(214,402,l),
(224,402,ls),
(318,404,o),
(490,339,o),
(490,218,qs),
(490,150,o),
(440,52,o),
(352,1,o),
(296,0,qs),
(246,0,o),
(153,48,o),
(96,130,o),
(96,176,qs),
(96,212,o),
(136,274,o),
(177,278,qs),
(226,284,o),
(267,227,o),
(244,163,o),
(215,164,qs),
(199,165,o),
(185,186,o),
(199,205,o),
(215,203,qs),
(231,203,o),
(239,235,o),
(212,262,o),
(181,258,qs),
(153,256,o),
(116,212,o),
(116,176,qs),
(116,143,o),
(159,70,o),
(240,20,o),
(296,20,qs),
(370,20,o),
(470,118,o),
(470,218,qs),
(470,294,o),
(381,368,o),
(275,384,o),
(217,383,qs),
(206,383,l),
(146,383,l),
(146,700,l),
(446,700,l),
(446,680,l),
(166,680,l)
);
}
);
width = 600;
},
{
layerId = "9DD8F9B5-8EC5-4AE3-8F26-4C0C48EFD34C";
shapes = (
{
closed = 1;
nodes = (
(166,403,l),
(214,402,l),
(224,402,ls),
(318,404,o),
(490,339,o),
(490,218,qs),
(490,150,o),
(440,52,o),
(352,1,o),
(296,0,qs),
(246,0,o),
(153,48,o),
(96,130,o),
(96,176,q),
(96,176,o),
(96,176,o),
(96,176,q),
(96,176,o),
(96,176,o),
(96,176,o),
(96,176,q),
(96,203,o),
(115,205,o),
(116,191,o),
(116,176,q),
(116,176,o),
(116,176,o),
(116,176,o),
(116,176,q),
(116,176,o),
(116,176,o),
(116,176,q),
(116,143,o),
(159,70,o),
(240,20,o),
(296,20,qs),
(370,20,o),
(470,118,o),
(470,218,qs),
(470,294,o),
(381,368,o),
(275,384,o),
(217,383,qs),
(206,383,l),
(146,383,l),
(146,700,l),
(446,700,l),
(446,680,l),
(166,680,l)
);
}
);
width = 600;
}
);
note = five;
unicode = 53;
},
{
glyphname = six;
layers = (
{
layerId = m01;
shapes = (
{
closed = 1;
nodes = (
(103,209,o),
(146,146,o),
(187,142,qs),
(236,136,o),
(277,193,o),
(254,257,o),
(225,256,qs),
(209,255,o),
(195,234,o),
(209,215,o),
(225,217,qs),
(241,217,o),
(249,185,o),
(222,158,o),
(191,162,qs),
(163,164,o),
(123,209,o),
(123,245,qs),
(123,300,o),
(180,398,o),
(280,398,qs),
(343,398,o),
(428,335,o),
(468,248,o),
(468,210,qs),
(468,154,o),
(413,67,o),
(326,21,o),
(280,21,qs),
(224,21,o),
(110,86,o),
(44,248,o),
(66,383,qs),
(88,543,o),
(231,680,o),
(397,681,o),
(463,649,q),
(463,668,l),
(379,706,o),
(204,690,o),
(66,534,o),
(44,372,qs),
(22,216,o),
(113,51,o),
(236,1,o),
(280,1,qs),
(335,1,o),
(431,55,o),
(488,150,o),
(488,210,qs),
(488,269,o),
(430,364,o),
(334,418,o),
(280,418,qs),
(198,418,o),
(103,333,o),
(103,245,qs)
);
}
);
width = 600;
},
{
layerId = "9DD8F9B5-8EC5-4AE3-8F26-4C0C48EFD34C";
shapes = (
{
closed = 1;
nodes = (
(103,245,o),
(103,245,o),
(103,245,q),
(103,245,o),
(103,245,o),
(103,245,o),
(103,245,q),
(103,219,o),
(123,219,o),
(123,237,o),
(123,245,q),
(123,245,o),
(123,245,o),
(123,245,o),
(123,245,q),
(123,245,o),
(123,245,o),
(123,245,q),
(123,305,o),
(185,398,o),
(280,398,qs),
(343,398,o),
(428,335,o),
(468,248,o),
(468,210,qs),
(468,154,o),
(413,67,o),
(326,21,o),
(280,21,qs),
(224,21,o),
(110,86,o),
(44,248,o),
(66,383,qs),
(88,543,o),
(231,680,o),
(397,681,o),
(463,649,q),
(463,668,l),
(379,706,o),
(204,690,o),
(66,534,o),
(44,372,qs),
(22,216,o),
(113,51,o),
(236,1,o),
(280,1,qs),
(335,1,o),
(431,55,o),
(488,150,o),
(488,210,qs),
(488,269,o),
(430,364,o),
(334,418,o),
(280,418,qs),
(198,418,o),
(103,333,o),
(103,245,q)
);
}
);
width = 600;
}
);
note = six;
unicode = 54;
},
{
glyphname = seven;
layers = (
{
layerId = m01;
shapes = (
{
closed = 1;
nodes = (
(516,700,l),
(206,700,ls),
(175,700,o),
(162,695,qs),
(127,684,o),
(90,631,o),
(94,590,qs),
(99,538,o),
(174,515,o),
(224,557,o),
(214,586,qs),
(208,601,o),
(184,607,o),
(170,590,o),
(177,574,qs),
(182,559,o),
(154,541,o),
(117,560,o),
(114,590,qs),
(110,627,o),
(153,677,o),
(187,677,qs),
(496,680,l),
(198,0,l),
(218,0,l),
(516,680,l)
);
}
);
width = 600;
},
{
layerId = "9DD8F9B5-8EC5-4AE3-8F26-4C0C48EFD34C";
shapes = (
{
closed = 1;
nodes = (
(516,700,l),
(206,700,ls),
(175,700,o),
(162,695,qs),
(127,684,o),
(90,631,o),
(94,590,q),
(94,590,o),
(94,590,o),
(94,590,o),
(94,590,q),
(97,567,o),
(117,569,o),
(114,590,o),
(114,590,q),
(114,590,o),
(114,590,o),
(114,590,o),
(114,590,q),
(110,627,o),
(153,677,o),
(187,677,qs),
(496,680,l),
(198,0,l),
(218,0,l),
(516,680,l)
);
}
);
width = 600;
}
);
note = seven;
unicode = 55;
},
{
glyphname = eight;
layers = (
{
layerId = m01;
shapes = (
{
closed = 1;
nodes = (
(121,453,o),
(229,390,o),
(307,390,qs),
(375,390,o),
(463,465,o),
(464,526,qs),
(466,613,o),
(380,665,qs),
(314,705,o),
(255,659,qs),
(234,643,o),
(235,607,o),
(263,599,o),
(274,611,qs),
(285,622,o),
(307,617,o),
(313,594,o),
(302,583,qs),
(280,561,o),
(221,579,o),
(206,641,o),
(241,674,qs),
(273,704,o),
(386,698,o),
(484,593,o),
(484,526,qs),
(484,496,o),
(456,426,o),
(377,370,o),
(307,370,qs),
(200,370,o),
(101,459,o),
(101,526,qs),
(101,569,o),
(148,649,o),
(251,701,o),
(330,701,q),
(330,683,l),
(256,683,o),
(162,631,o),
(121,558,o),
(121,526,qs)
);
},
{
closed = 1;
nodes = (
(106,145,o),
(158,64,o),
(248,20,o),
(303,20,qs),
(358,20,o),
(432,72,o),
(468,153,o),
(469,199,qs),
(471,291,o),
(379,350,qs),
(310,392,o),
(248,344,qs),
(226,327,o),
(227,290,o),
(257,281,o),
(268,294,q),
(280,305,o),
(303,300,o),
(309,276,o),
(297,264,qs),
(274,241,o),
(212,260,o),
(197,325,o),
(233,360,qs),
(267,391,o),
(386,385,o),
(489,270,o),
(489,199,qs),
(489,166,o),
(459,74,o),
(376,0,o),
(303,0,qs),
(227,0,o),
(130,61,o),
(86,153,o),
(86,199,qs),
(86,245,o),
(135,331,o),
(244,388,o),
(327,388,q),
(327,369,l),
(250,369,o),
(150,312,o),
(106,233,o),
(106,199,qs)
);
}
);
width = 600;
},
{
layerId = "9DD8F9B5-8EC5-4AE3-8F26-4C0C48EFD34C";
shapes = (
{
closed = 1;
nodes = (
(121,453,o),
(229,390,o),
(307,390,qs),
(374,390,o),
(463,465,o),
(464,526,qs),
(466,613,o),
(380,665,qs),
(314,705,o),
(255,659,q),
(255,659,o),
(255,659,o),
(255,659,o),
(255,659,q),
(255,659,o),
(241,648,o),
(228,661,o),
(241,674,q),
(241,674,o),
(241,674,o),
(241,674,o),
(241,674,q),
(273,704,o),
(386,698,o),
(484,593,o),
(484,526,qs),
(484,496,o),
(456,426,o),
(377,370,o),
(307,370,qs),
(200,370,o),
(101,459,o),
(101,526,qs),
(101,569,o),
(148,649,o),
(251,701,o),
(330,701,q),
(330,683,l),
(256,683,o),
(162,631,o),
(121,558,o),
(121,526,qs)
);
},
{
closed = 1;
nodes = (
(106,145,o),
(158,64,o),
(248,20,o),
(303,20,qs),
(358,20,o),
(432,72,o),
(468,153,o),
(469,199,qs),
(470,293,o),
(379,350,qs),
(312,392,o),
(248,344,q),
(248,344,o),
(248,344,o),
(248,344,o),
(248,344,q),
(238,336,o),
(226,339,o),
(223,350,o),
(233,360,q),
(233,360,o),
(233,360,o),
(233,360,o),
(233,360,q),
(267,391,o),
(386,385,o),
(489,270,o),
(489,199,qs),
(489,166,o),
(459,74,o),
(376,0,o),
(303,0,qs),
(227,0,o),
(130,61,o),
(86,153,o),
(86,199,qs),
(86,245,o),
(135,331,o),
(244,388,o),
(327,388,q),
(327,369,l),
(250,369,o),
(150,312,o),
(106,233,o),
(106,199,qs)
);
}
);
width = 600;
}
);
note = eight;
unicode = 56;
},
{
glyphname = nine;
layers = (
{
layerId = m01;
shapes = (
{
closed = 1;
nodes = (
(460,424,l),
(491,502,o),
(461,628,o),
(365,698,o),
(303,698,qs),
(244,698,o),
(155,640,o),
(107,545,o),
(107,490,qs),
(107,408,o),
(192,313,o),
(280,313,qs),
(316,313,o),
(379,356,o),
(383,397,qs),
(389,446,o),
(332,487,o),
(268,464,o),
(269,435,qs),
(270,419,o),
(291,405,o),
(310,419,o),
(308,435,qs),
(308,451,o),
(340,459,o),
(367,432,o),
(363,401,qs),
(361,373,o),
(316,333,o),
(280,333,qs),
(225,333,o),
(127,390,o),
(127,490,qs),
(127,553,o),
(184,638,o),
(266,678,o),
(303,678,qs),
(355,678,o),
(441,619,o),
(470,506,o),
(441,429,qs),
(282,0,l),
(308,0,l)
);
}
);
width = 600;
},
{
layerId = "9DD8F9B5-8EC5-4AE3-8F26-4C0C48EFD34C";
shapes = (
{
closed = 1;
nodes = (
(460,424,l),
(491,502,o),
(461,628,o),
(365,698,o),
(303,698,qs),
(244,698,o),
(155,640,o),
(107,545,o),
(107,490,qs),
(107,408,o),
(192,313,o),
(280,313,qs),
(316,313,o),
(379,356,o),
(383,397,q),
(383,397,o),
(383,397,o),
(383,397,o),
(383,397,q),
(384,405,o),
(381,419,o),
(364,418,o),
(363,401,q),
(363,401,o),
(363,401,o),
(363,401,o),
(363,401,q),
(361,373,o),
(316,333,o),
(280,333,qs),
(225,333,o),
(127,390,o),
(127,490,qs),
(127,553,o),
(184,638,o),
(266,678,o),
(303,678,qs),
(355,678,o),
(441,619,o),
(470,506,o),
(441,429,qs),
(282,0,l),
(308,0,l)
);
}
);
width = 600;
}
);
note = nine;
unicode = 57;
},
